<?xml version="1.0" encoding="UTF-8" standalone="no"?>
<!-- Creator: CorelDRAW -->

<svg
   xml:space="preserve"
   width="100mm"
   height="70mm"
   version="1.1"
   style="clip-rule:evenodd;fill-rule:evenodd;image-rendering:optimizeQuality;shape-rendering:geometricPrecision;text-rendering:geometricPrecision"
   viewBox="0 0 10000 7000"
   id="svg30"
   sodipodi:docname="ROCODE_ico.svg"
   inkscape:version="1.2.2 (b0a8486541, 2022-12-01)"
   xmlns:inkscape="http://www.inkscape.org/namespaces/inkscape"
   xmlns:sodipodi="http://sodipodi.sourceforge.net/DTD/sodipodi-0.dtd"
   xmlns="http://www.w3.org/2000/svg"
   xmlns:svg="http://www.w3.org/2000/svg"><sodipodi:namedview
   id="namedview32"
   pagecolor="#ffffff"
   bordercolor="#000000"
   borderopacity="0.25"
   inkscape:showpageshadow="2"
   inkscape:pageopacity="0.0"
   inkscape:pagecheckerboard="0"
   inkscape:deskcolor="#d1d1d1"
   inkscape:document-units="mm"
   showgrid="false"
   inkscape:zoom="1.3505331"
   inkscape:cx="452.78416"
   inkscape:cy="198.44016"
   inkscape:window-width="1920"
   inkscape:window-height="1006"
   inkscape:window-x="0"
   inkscape:window-y="0"
   inkscape:window-maximized="1"
   inkscape:current-layer="圖層_x0020_1" />
 <defs
   id="defs4">
  <style
   type="text/css"
   id="style2">
   <![CDATA[
    .str0 {stroke:black;stroke-width:20;stroke-miterlimit:22.9256}
    .fil3 {fill:#00A1C8}
    .fil0 {fill:#01060C}
    .fil4 {fill:#383F51}
    .fil2 {fill:#CED2D3}
    .fil1 {fill:#FA510C}
   ]]>
  </style>
 </defs>
 <g
   id="圖層_x0020_1"
   inkscape:label="圖層 1"
   inkscape:groupmode="layer">
  <metadata
   id="CorelCorpID_0Corel-Layer" />
  
  <polygon
   class="fil1"
   points="41012.13,11167.79 41865.15,11169.21 41867.97,11987.3 41010.72,11984.47 "
   id="polygon9"
   transform="translate(-33434.009,-10625.805)" />
  
  
  
  
  
  
  
  <path
   class="fil4"
   d="m 8035.7081,5923.1065 c -386.54,7.027 -738.224,11.686 -1110.184,13.06 -1133.608,-1218.2474 -1219.7577,-1235.038 -2509.0247,-2626.9308 496.538,-9.5125 1008.6533,0.1713 1483.8433,-17.1187 132.65,-19.76 287.5214,-72.3305 360.9014,-195.1005 101.6,-136.17 104.42,-317.5 84.32,-478.72 -26.13,-240.77 -258.65,-276.23 -441.68,-281.87 -933.8,-3.17 -1867.6104,4.94 -2801.4004,-5.29 -216.96,-285.4 -483.66,-529.52 -697.44,-817.74 1318.33,5.29 2637.0004,-4.58 3955.3304,1.06 350.67,-0.35 694.27,182.39 883.359,479.07 342.538,559.5 210.449,1397.67 -380.999,1738.48 -206.02,144.29 -464.61,178.15 -709.44,186.62 380.38,472.05 1375.627,1431.34 1882.414,2004.48 z m -6008.1344,-3466.03 c 140.76,-128.76 275.8808,-304.9764 453.3208,-383.9964 -467.78,428.62 -826.9208,1017.9364 -969.0908,1639.5264 -31.7681,135.868 -34.5362,143.235 -81.1299,331.26 -105.497,55.775 -188.9991,107.8346 -324.019,178.9586 37.7401,-170.39 135.6291,-390.2786 188.549,-556.7886 143.58,-453.66 404.6399,-866.06 732.3699,-1208.96 z m 6634.3214,1452.73 c 132.289,-178.51 171.0292,-404.8363 289.2082,-592.1563 -71.61,372.17 -225.3582,729.0363 -451.8472,1028.5463 -214.479,287.86 -562.5836,626.8203 -843.8896,854.0793 -23.971,-17.201 -57.9571,-51.4523 -183.7421,-141.1193 191.584,-158.978 450.4947,-302.68 625.8237,-482.25 201.789,-209.9 406.748,-420.51 564.447,-667.1 z m -2614.081,1941.69 c 145.938,-54.415 108.7778,-54.9496 207.8638,-87.9816 52.492,48.992 87.0434,83.4507 142.5724,140.4087 -415.92,176.74 -808.3362,305.9927 -1257.0762,377.2527 -216.25,26.46 -431.09,74.09 -650.17,72.68 -328.7804,-0.71 -661.4504,20.81 -986.7104,-43.4 -180.97,-27.51 -386.3945,-81.813 -562.4345,-128.7228 220.49,39.86 404.236,68.7555 627.196,90.9755 470.95,6 1021.4389,-22.2227 1482.8689,-126.6425 337.96,-74.44 676.63,-157.69 995.89,-294.57 z M 3047.3681,2840.5001 c 442.1447,4.8646 579.1364,2.475 1016.7366,13.6654 -29.0707,241.3228 -41.9925,267.9129 -72.3387,512.8903 833.6941,852.345 874.3351,881.1639 1713.1961,1732.2329 -64.91,45.86 -227.332,160.8678 -296.132,200.7278 -867.28,-883.6433 -873.218,-890.5221 -1482.2623,-1507.5641 0,0 -106.3128,702.2441 -131.5128,924.1541 -533.156,266.8237 -534.5557,266.5841 -1047.8213,528.11 100.19,-796.09 300.1344,-2404.2164 300.1344,-2404.2164 z"
   id="path25-3"
   sodipodi:nodetypes="ccccccccccccccccccccccccccccccccccccccccccccccc"
   style="clip-rule:evenodd;fill:#ffffff;fill-rule:evenodd;image-rendering:optimizeQuality;shape-rendering:geometricPrecision;text-rendering:geometricPrecision" /><path
   class="fil4"
   d="m 7966.1827,5933.1279 c -386.5409,7.027 -738.2248,11.686 -1110.1849,13.06 -1133.6077,-1218.2474 -1157.5923,-1246.1772 -2446.86,-2638.07 496.5382,-9.5125 951.79,0.36 1426.98,-16.93 132.65,-19.76 282.22,-61.38 355.6,-184.15 101.6,-136.17 104.42,-317.5 84.32,-478.72 -26.13,-240.77 -258.65,-276.23 -441.68,-281.87 -933.8,-3.17 -1867.61,4.94 -2801.4,-5.29 -216.96,-285.4 -483.66,-529.52 -697.44,-817.74 1318.33,5.29 2637,-4.58 3955.33,1.06 350.67,-0.35 694.27,182.39 883.3594,479.07 342.5379,559.5 210.4488,1397.67 -380.9994,1738.48 -206.02,144.29 -464.61,178.15 -709.44,186.62 380.38,472.05 1375.6279,1431.34 1882.4149,2004.48 z m -6008.1349,-3466.03 c 140.76,-128.76 271.99,-276.93 449.43,-355.95 -467.78,428.62 -823.03,989.89 -965.2,1611.48 -31.7681,135.868 -34.5362,143.235 -81.13,331.26 -105.497,55.775 -115.1,61.866 -250.12,132.99 37.74,-170.39 61.73,-344.31 114.65,-510.82 143.58,-453.66 404.64,-866.06 732.37,-1208.96 z m 6634.3213,1452.73 c 132.2894,-178.51 217.6588,-385.58 335.8382,-572.9 -71.6097,372.17 -271.9885,709.78 -498.4773,1009.29 -214.4788,287.86 -540.179,594.961 -821.4852,822.22 -23.971,-17.201 -27.445,-19.593 -153.2291,-109.26 191.5838,-158.978 397.5776,-302.68 572.9067,-482.25 201.7888,-209.9 406.7476,-420.51 564.4467,-667.1 z m -2614.0813,1941.69 c 145.9383,-54.415 169.3841,-62.218 268.47,-95.25 52.4927,48.992 59.471,54.522 115,111.48 -415.92,176.74 -841.37,342.19 -1290.11,413.45 -216.25,26.46 -431.09,74.09 -650.17,72.68 -328.78,-0.71 -661.45,20.81 -986.71,-43.4 -180.97,-27.51 -351.01,-97.72 -527.05,-144.63 220.49,39.86 443.09,69.14 666.05,91.36 470.95,6 947.2,-6.7 1408.63,-111.12 337.96,-74.44 676.63,-157.69 995.89,-294.57 z m -2938.27,-3022.94 c 395.11,-4.94 568.6777,0.7038 963.7777,10.9338 -29.0707,241.3228 -51.2092,282.5881 -81.5554,527.5655 833.6943,852.345 874.3352,881.1639 1713.1961,1732.2329 -64.91,45.86 -227.3324,160.8678 -296.1324,200.7278 -867.2794,-883.6433 -873.2175,-890.5221 -1482.2619,-1507.5641 0,0 -106.3128,702.2441 -131.5128,924.1541 -533.156,266.8237 -534.5557,266.5841 -1047.8213,528.11 100.19,-796.09 362.31,-2416.16 362.31,-2416.16 z"
   id="path25"
   sodipodi:nodetypes="ccccccccccccccccccccccccccccccccccccccccccccccc" />
  <path
   class="fil2"
   d="m 1561.1678,5315.0679 c 83.26,-32.81 167.57,-61.74 253.3,-86.43 491.41,382.06 1105.95,585.96 1724.73,611.36 823.72,46.92 1649.93,-116.06 2410.52,-429.68 40.22,39.51 80.43,79.37 119.94,119.59 -1366.42,613.92 -3285.54,840.39 -4508.49,-214.84 z m 6801.8925,-1386.07 c -571.3767,667.937 -931.2436,856.149 -1205.7931,1036.82 -39.1498,-46.22 -80.4294,-90.31 -116.0594,-139 415.7849,-316.296 723.9851,-567.674 1028.2413,-986.832 122.3034,-177.023 321.8102,-359.605 462.2403,-1025.048 50.4107,-280.573 13.097,-470.002 -65.6197,-719.31 -84.0984,-200.176 -166.5358,-350.5986 -308.3182,-527.05 197.6861,-2.189 244.1278,-0.513 402.5079,-2.47 524.197,782.44 374.1779,1694.953 -197.1991,2362.89 z M 4776.3778,791.40802 c 612.42,-140.75991 1246.71,-150.98991 1870.07,-92.77994 232.13,30.69 460.02,83.24997 687.5685,136.51994 -3.18,54.32997 -6,108.30994 -8.47,162.62991 C 6530.7378,777.64805 5689.7178,772.00805 4877.6178,891.94799 c -319.96,65.25994 -641.7,131.58991 -948.26,246.93991 -168.97,53.62 -323.14,147.11 -497.06,184.86 406.41,-264.23 877,-414.15994 1344.08,-532.33988 z"
   id="path27"
   sodipodi:nodetypes="cccccczccccccczcccccccc" />
 <path
   style="fill:#0093bf;stroke-width:74.0442;stroke-opacity:0.514843"
   id="path465"
   sodipodi:type="arc"
   sodipodi:cx="1397.4086"
   sodipodi:cy="4732.5596"
   sodipodi:rx="409.66562"
   sodipodi:ry="409.66562"
   sodipodi:start="6.0957345"
   sodipodi:end="6.0953032"
   sodipodi:open="true"
   sodipodi:arc-type="arc"
   d="m 1799.8979,4656.2163 a 409.66562,409.66562 0 0 1 -326.1027,478.8243 409.66562,409.66562 0 0 1 -478.85945,-326.051 409.66562,409.66562 0 0 1 325.99945,-478.8946 409.66562,409.66562 0 0 1 478.9297,325.9478" /></g>
</svg>
