<?xml version="1.0" encoding="UTF-8" standalone="no"?>
<!-- Creator: CorelDRAW -->

<svg
   xml:space="preserve"
   width="200mm"
   height="70mm"
   version="1.1"
   style="clip-rule:evenodd;fill-rule:evenodd;image-rendering:optimizeQuality;shape-rendering:geometricPrecision;text-rendering:geometricPrecision"
   viewBox="0 0 20000 7000"
   id="svg30"
   sodipodi:docname="AGENDAO.svg"
   inkscape:version="1.2.2 (b0a8486541, 2022-12-01)"
   xmlns:inkscape="http://www.inkscape.org/namespaces/inkscape"
   xmlns:sodipodi="http://sodipodi.sourceforge.net/DTD/sodipodi-0.dtd"
   xmlns="http://www.w3.org/2000/svg"
   xmlns:svg="http://www.w3.org/2000/svg"><sodipodi:namedview
   id="namedview32"
   pagecolor="#ffffff"
   bordercolor="#000000"
   borderopacity="0.25"
   inkscape:showpageshadow="2"
   inkscape:pageopacity="0.0"
   inkscape:pagecheckerboard="0"
   inkscape:deskcolor="#d1d1d1"
   inkscape:document-units="mm"
   showgrid="false"
   inkscape:zoom="1.3505331"
   inkscape:cx="452.78416"
   inkscape:cy="198.44016"
   inkscape:window-width="1920"
   inkscape:window-height="1006"
   inkscape:window-x="0"
   inkscape:window-y="0"
   inkscape:window-maximized="1"
   inkscape:current-layer="圖層_x0020_1" />
 <defs
   id="defs4">
  <style
   type="text/css"
   id="style2">
   <![CDATA[
    .str0 {stroke:black;stroke-width:20;stroke-miterlimit:22.9256}
    .fil3 {fill:#00A1C8}
    .fil0 {fill:#01060C}
    .fil4 {fill:#383F51}
    .fil2 {fill:#CED2D3}
    .fil1 {fill:#FA510C}
   ]]>
  </style>
 </defs>
 <g
   id="圖層_x0020_1"
   inkscape:label="圖層 1"
   inkscape:groupmode="layer">
  <metadata
   id="CorelCorpID_0Corel-Layer" />
  
  <polygon
   class="fil1"
   points="41865.15,11169.21 41867.97,11987.3 41010.72,11984.47 41012.13,11167.79 "
   id="polygon9"
   transform="translate(-33857.345,-10625.805)" />
  <path
   class="fil1"
   d="m 9571.8977,2919.2379 811.8473,-8.7 c 276.81,10.3 498.12,33.26 621.27,168.2 350.12,383.62 132.11,1006.74 -216.98,1072.16 l 423.175,693.032 c -207.613,1.265 -325.805,-0.995 -503.012,-2.751 -288.396,-452.642 -293.845,-482.068 -499.243,-777.091 -57.428,-79.257 -53.783,-114.1938 -53.51,-230.8748 99.57,-1.4712 183.04,-1.6152 274.5,-6.9452 352.45,-20.47 358.41,-439.28 125.61,-509.68 -179.56,-49.74 -370.07,-23.63 -554.22,-25.4 10.42,477.58 21.57,1063.074 14.314,1549.013 -142.9551,1.913 -308.8192,2.317 -458.8013,2.847 z"
   id="path11"
   sodipodi:nodetypes="cccccccccccccc" />
  <path
   class="fil1"
   d="m 12250.145,4880.3379 c -69.53,-0.68 -139.09,-3.07 -207.99,-3.07 -227.53,-14.11 -486.83,-89.61 -604.66,-302.68 -130.62,-189.6 -136.15,-1065.49 -32.74,-1276.11 180.38,-367.34 491.86,-345.23 845.39,-359.03 353.53,13.8 665.01,-8.31 845.39,359.03 103.41,210.62 97.88,1086.51 -32.74,1276.11 -117.83,213.07 -377.13,288.57 -604.66,302.68 -68.9,0 -138.46,2.39 -207.99,3.07 z m 0,-1554.73 c -31.46,-0.01 -62.3,-0.22 -91.57,-2.32 -162.85,2.5 -299.96,105.31 -330.62,256.5 -37.04,182.6 -34.27,410.42 -12.72,604.76 21.36,192.7 106.85,280.53 295.01,303.61 44.89,3.25 92.28,7.86 139.9,9.8 47.62,-1.94 95.01,-6.55 139.9,-9.8 188.16,-23.08 273.65,-110.91 295.01,-303.61 21.55,-194.34 24.32,-422.16 -12.72,-604.76 -30.66,-151.19 -167.77,-254 -330.62,-256.5 -29.27,2.1 -60.11,2.31 -91.57,2.32 z"
   id="path13" />
  <path
   class="fil2"
   d="m 13779.595,3035.7779 c 252.23,-107.25 533.39,-100.54 802.56,-91.02 139.71,0 279.4,13.06 417.69,33.16 -3.87,95.61 -5.64,191.21 -7.41,286.81 -240.59,-38.1 -484.36,-38.45 -727.42,-32.45 -130.88,14.11 -285.05,17.64 -375.36,129.11 -134.05,136.52 -103.01,340.42 -107.6,514.34 8.12,186.27 -32.81,390.88 71.62,558.45 53.62,94.9 169.33,125.59 270.93,136.53 287.52,11.99 575.38,-1.41 862.54,-20.46 1.06,95.25 2.82,190.85 2.47,286.45 -347.83,-0.7 -699.2,81.14 -1043.52,-4.23 -270.92,-47.98 -484.01,-294.22 -498.82,-568.68 -8.47,-234.95 -11.29,-470.96 -3.53,-706.26 10.23,-218.01 136.52,-426.85 335.85,-521.75 z"
   id="path15" />
  <path
   class="fil2"
   d="m 17765.975,3516.2479 c 0,-188.37 -5.3,-377.11 3.52,-565.84 93.84,2.82 188.03,3.88 282.57,2.47 15.53,608.88 6,1218.48 9.88,1827.38 -164.39,63.5 -343.25,64.55 -515.41,88.54 -244.47,11.65 -531.98,23.99 -715.43,-168.62 -147.1,-181.69 -103.01,-430.04 -109.71,-646.29 -9.88,-176.74 60.32,-376.42 224.72,-462.49 249.77,-142.53 547.15,-66.33 819.85,-75.15 z m -728.13,408.87 c -25.04,147.11 -11.64,298.1 -9.17,446.97 -0.7,99.13 57.15,216.61 166.15,228.25 184.86,16.93 370.77,2.82 556.34,-1.41 31.4,-270.58 0,-543.98 17.99,-815.62 -170.04,-6.36 -338.67,-34.22 -509.06,-23.64 -92.07,23.99 -198.26,61.03 -222.25,165.45 z"
   id="path17" />
  <path
   class="fil2"
   d="m 15182.015,3756.2379 c 97.23,-205.81 369.88,-248.23 587.67,-257.4 13.67,-0.58 27.36,-1.03 41.05,-1.36 13.69,0.33 27.38,0.78 41.05,1.36 217.79,9.17 490.44,51.59 587.67,257.4 81.23,171.94 54.15,561.16 41.06,710.04 -18.35,244.48 -267.77,403.93 -498.12,404.99 -55.41,0.08 -113.21,2.12 -171.66,2.94 -58.45,-0.82 -116.25,-2.86 -171.66,-2.94 -230.35,-1.06 -479.77,-160.51 -498.12,-404.99 -13.09,-148.88 -40.17,-538.1 41.06,-710.04 z m 355.47,40.82 c -139.35,96.2 -111.13,263.18 -116.77,396.88 13.05,138.64 -11.29,339.37 147.46,402.17 193.46,39.77 291.66,39.77 485.12,0 158.75,-62.8 134.41,-263.53 147.46,-402.17 -5.64,-133.7 22.58,-300.68 -116.77,-396.88 -134.52,-63.35 -411.98,-63.35 -546.5,0 z"
   id="path19" />
  <path
   class="fil2"
   d="m 18496.925,3629.8479 c 201.44,-149.93 473.78,-143.23 711.55,-111.83 182.39,25.04 351.37,163.69 382.41,349.95 25.76,146.4 18.35,295.98 17.29,444.15 -335.49,-1.06 -671.34,-0.71 -1006.83,0 -1.76,123.47 41.27,268.11 180.62,293.86 273.41,45.51 557.74,16.23 825.15,-53.62 -1.76,81.49 -2.47,162.99 -3.18,244.12 -166.5,34.22 -331.96,85.38 -504.11,76.2 -217.66,-1.06 -472.73,20.82 -643.47,-142.17 -177.09,-163.33 -144.99,-424.39 -147.82,-642.05 -7.05,-170.04 42.34,-355.95 188.39,-458.61 z m 113.24,474.48 c 239.54,-6.35 479.78,-4.93 719.67,0.36 -8.47,-104.07 12.34,-241.3 -95.61,-302.33 -139.69,-74.09 -307.62,-50.45 -459.66,-42.69 -164.04,23.28 -168.28,216.61 -164.4,344.66 z"
   id="path21" />
  
  <path
   class="fil4"
   d="m 7612.3745,5923.1065 c -386.54,7.027 -738.224,11.686 -1110.184,13.06 -1133.608,-1218.2474 -1219.7577,-1235.038 -2509.0247,-2626.9308 496.538,-9.5125 1008.6533,0.1713 1483.8433,-17.1187 132.65,-19.76 287.5214,-72.3305 360.9014,-195.1005 101.6,-136.17 104.42,-317.5 84.32,-478.72 -26.13,-240.77 -258.65,-276.23 -441.68,-281.87 -933.8,-3.17 -1867.6104,4.94 -2801.4004,-5.29 -216.96,-285.4 -483.66,-529.52 -697.44,-817.74 1318.33,5.29 2637.0004,-4.58 3955.3304,1.06 350.67,-0.35 694.27,182.39 883.359,479.07 342.538,559.5 210.449,1397.67 -380.999,1738.48 -206.02,144.29 -464.61,178.15 -709.44,186.62 380.38,472.05 1375.627,1431.34 1882.414,2004.48 z m -6008.1344,-3466.03 c 140.76,-128.76 275.8808,-304.9764 453.3208,-383.9964 -467.78,428.62 -826.9208,1017.9364 -969.0908,1639.5264 -31.7681,135.868 -34.5362,143.235 -81.1299,331.26 -105.49689,55.775 -188.99893,107.8346 -324.01877,178.9586 37.74001,-170.39 135.629,-390.2786 188.54887,-556.7886 143.5799,-453.66 404.6398,-866.06 732.3698,-1208.96 z m 6634.3214,1452.73 c 132.289,-178.51 171.0292,-404.8363 289.2082,-592.1563 -71.61,372.17 -225.3582,729.0363 -451.8472,1028.5463 -214.479,287.86 -562.5836,626.8203 -843.8896,854.0793 -23.971,-17.201 -57.9571,-51.4523 -183.7421,-141.1193 191.584,-158.978 450.4947,-302.68 625.8237,-482.25 201.789,-209.9 406.748,-420.51 564.447,-667.1 z m -2614.081,1941.69 c 145.938,-54.415 108.7778,-54.9496 207.8638,-87.9816 52.492,48.992 87.0434,83.4507 142.5724,140.4087 -415.92,176.74 -808.3362,305.9927 -1257.0762,377.2527 -216.25,26.46 -431.09,74.09 -650.17,72.68 -328.7804,-0.71 -661.4504,20.81 -986.7104,-43.4 -180.97,-27.51 -386.3945,-81.813 -562.4345,-128.7228 220.49,39.86 404.236,68.7555 627.196,90.9755 470.95,6 1021.4389,-22.2227 1482.8689,-126.6425 337.96,-74.44 676.63,-157.69 995.89,-294.57 z M 2624.0345,2840.5001 c 442.1447,4.8646 579.1364,2.475 1016.7366,13.6654 -29.0707,241.3228 -41.9925,267.9129 -72.3387,512.8903 833.6941,852.345 874.3351,881.1639 1713.1961,1732.2329 -64.91,45.86 -227.332,160.8678 -296.132,200.7278 -867.28,-883.6433 -873.218,-890.5221 -1482.2623,-1507.5641 0,0 -106.3128,702.2441 -131.5128,924.1541 -533.156,266.8237 -534.5557,266.5841 -1047.8213,528.11 100.19,-796.09 300.1344,-2404.2164 300.1344,-2404.2164 z"
   id="path25-3"
   sodipodi:nodetypes="ccccccccccccccccccccccccccccccccccccccccccccccc"
   style="clip-rule:evenodd;fill:#ffffff;fill-rule:evenodd;image-rendering:optimizeQuality;shape-rendering:geometricPrecision;text-rendering:geometricPrecision" /><path
   class="fil4"
   d="m 7542.8491,5933.1279 c -386.5409,7.027 -738.2248,11.686 -1110.1849,13.06 -1133.6077,-1218.2474 -1157.5923,-1246.1772 -2446.86,-2638.07 496.5382,-9.5125 951.79,0.36 1426.98,-16.93 132.65,-19.76 282.22,-61.38 355.6,-184.15 101.6,-136.17 104.42,-317.5 84.32,-478.72 -26.13,-240.77 -258.65,-276.23 -441.68,-281.87 -933.8,-3.17 -1867.61,4.94 -2801.4,-5.29 -216.96,-285.4 -483.66,-529.52 -697.44,-817.74 1318.33,5.29 2637,-4.58 3955.33,1.06 350.67,-0.35 694.27,182.39 883.3594,479.07 342.5379,559.5 210.4488,1397.67 -380.9994,1738.48 -206.02,144.29 -464.61,178.15 -709.44,186.62 380.38,472.05 1375.6279,1431.34 1882.4149,2004.48 z m -6008.1349,-3466.03 c 140.76,-128.76 271.99,-276.93 449.43,-355.95 -467.78,428.62 -823.03,989.89 -965.2,1611.48 -31.76807,135.868 -34.53617,143.235 -81.12994,331.26 -105.49694,55.775 -115.09994,61.866 -250.11988,132.99 37.74,-170.39 61.72997,-344.31 114.64994,-510.82 143.57994,-453.66 404.63988,-866.06 732.36988,-1208.96 z m 6634.3213,1452.73 c 132.2894,-178.51 217.6588,-385.58 335.8382,-572.9 -71.6097,372.17 -271.9885,709.78 -498.4773,1009.29 -214.4788,287.86 -540.179,594.961 -821.4852,822.22 -23.971,-17.201 -27.445,-19.593 -153.2291,-109.26 191.5838,-158.978 397.5776,-302.68 572.9067,-482.25 201.7888,-209.9 406.7476,-420.51 564.4467,-667.1 z m -2614.0813,1941.69 c 145.9383,-54.415 169.3841,-62.218 268.47,-95.25 52.4927,48.992 59.471,54.522 115,111.48 -415.92,176.74 -841.37,342.19 -1290.11,413.45 -216.25,26.46 -431.09,74.09 -650.17,72.68 -328.78,-0.71 -661.45,20.81 -986.71,-43.4 -180.97,-27.51 -351.01,-97.72 -527.05,-144.63 220.49,39.86 443.09,69.14 666.05,91.36 470.95,6 947.2,-6.7 1408.63,-111.12 337.96,-74.44 676.63,-157.69 995.89,-294.57 z m -2938.27,-3022.94 c 395.11,-4.94 568.6777,0.7038 963.7777,10.9338 -29.0707,241.3228 -51.2092,282.5881 -81.5554,527.5655 833.6943,852.345 874.3352,881.1639 1713.1961,1732.2329 -64.91,45.86 -227.3324,160.8678 -296.1324,200.7278 -867.2794,-883.6433 -873.2175,-890.5221 -1482.2619,-1507.5641 0,0 -106.3128,702.2441 -131.5128,924.1541 -533.156,266.8237 -534.5557,266.5841 -1047.8213,528.11 100.19,-796.09 362.31,-2416.16 362.31,-2416.16 z"
   id="path25"
   sodipodi:nodetypes="ccccccccccccccccccccccccccccccccccccccccccccccc" />
  <path
   class="fil2"
   d="m 1137.8342,5315.0679 c 83.26,-32.81 167.57,-61.74 253.3,-86.43 491.41,382.06 1105.95,585.96 1724.73,611.36 823.72,46.92 1649.93,-116.06 2410.52,-429.68 40.22,39.51 80.43,79.37 119.94,119.59 -1366.42,613.92 -3285.54,840.39 -4508.49,-214.84 z m 6801.8925,-1386.07 c -571.3767,667.937 -931.2436,856.149 -1205.7931,1036.82 -39.1498,-46.22 -80.4294,-90.31 -116.0594,-139 415.7849,-316.296 723.9851,-567.674 1028.2413,-986.832 122.3034,-177.023 321.8102,-359.605 462.2403,-1025.048 50.4107,-280.573 13.097,-470.002 -65.6197,-719.31 -84.0984,-200.176 -166.5358,-350.5986 -308.3182,-527.05 197.6861,-2.189 244.1278,-0.513 402.5079,-2.47 524.197,782.44 374.1779,1694.953 -197.1991,2362.89 z M 4353.0442,791.40802 c 612.42,-140.75991 1246.71,-150.98991 1870.07,-92.77994 232.13,30.69 460.02,83.24997 687.5685,136.51994 -3.18,54.32997 -6,108.30994 -8.47,162.62991 C 6107.4042,777.64805 5266.3842,772.00805 4454.2842,891.94799 c -319.96,65.25994 -641.7,131.58991 -948.26,246.93991 -168.97,53.62 -323.14,147.11 -497.06,184.86 406.41,-264.23 877,-414.15994 1344.08,-532.33988 z"
   id="path27"
   sodipodi:nodetypes="cccccczccccccczcccccccc" />
 <path
   style="fill:#0093bf;stroke-width:74.0442;stroke-opacity:0.514843"
   id="path465"
   sodipodi:type="arc"
   sodipodi:cx="974.0755"
   sodipodi:cy="4732.5596"
   sodipodi:rx="409.66562"
   sodipodi:ry="409.66562"
   sodipodi:start="6.0957345"
   sodipodi:end="6.0953032"
   sodipodi:open="true"
   sodipodi:arc-type="arc"
   d="m 1376.5648,4656.2163 a 409.66562,409.66562 0 0 1 -326.1027,478.8243 409.66562,409.66562 0 0 1 -478.85942,-326.051 409.66562,409.66562 0 0 1 325.99941,-478.8946 409.66562,409.66562 0 0 1 478.92971,325.9478" /></g>
</svg>
