<?xml version="1.0" encoding="UTF-8" standalone="no"?>
<!-- Created with Inkscape (http://www.inkscape.org/) -->

<svg
   width="261.10202mm"
   height="90.573166mm"
   viewBox="0 0 261.10202 90.573166"
   version="1.1"
   id="svg5"
   xml:space="preserve"
   inkscape:version="1.2.2 (b0a8486541, 2022-12-01)"
   sodipodi:docname="icon_ora.svg"
   xmlns:inkscape="http://www.inkscape.org/namespaces/inkscape"
   xmlns:sodipodi="http://sodipodi.sourceforge.net/DTD/sodipodi-0.dtd"
   xmlns="http://www.w3.org/2000/svg"
   xmlns:svg="http://www.w3.org/2000/svg"><sodipodi:namedview
     id="namedview7"
     pagecolor="#ffffff"
     bordercolor="#000000"
     borderopacity="0.25"
     inkscape:showpageshadow="2"
     inkscape:pageopacity="0.0"
     inkscape:pagecheckerboard="0"
     inkscape:deskcolor="#d1d1d1"
     inkscape:document-units="mm"
     showgrid="false"
     showguides="true"
     inkscape:zoom="0.67526655"
     inkscape:cx="607.16764"
     inkscape:cy="342.08713"
     inkscape:window-width="1920"
     inkscape:window-height="1006"
     inkscape:window-x="0"
     inkscape:window-y="0"
     inkscape:window-maximized="1"
     inkscape:current-layer="layer1" /><defs
     id="defs2" /><g
     inkscape:label="Layer 1"
     inkscape:groupmode="layer"
     id="layer1"
     transform="translate(-48.441395,-49.449507)"><path
       style="fill:#c87137;stroke-width:0.162642"
       d="m 92.007446,136.69762 c 0,-0.0895 0.07751,-0.16264 0.172241,-0.16264 0.09473,0 0.127005,0.0732 0.07172,0.16264 -0.05526,0.0895 -0.132789,0.16264 -0.172235,0.16264 -0.03947,0 -0.07173,-0.0732 -0.07173,-0.16264 z m -1.545095,-0.27635 c -0.447268,-0.13599 -0.977884,-0.25751 -1.179152,-0.27007 -0.201268,-0.0126 -0.365943,-0.0679 -0.365943,-0.12303 0,-0.0551 -0.548916,-0.30039 -1.219815,-0.54508 -0.670899,-0.24469 -1.219809,-0.51164 -1.219809,-0.59322 0,-0.0816 0.274454,-0.0292 0.609901,0.11645 0.589659,0.25599 0.869856,0.34615 3.414663,1.09882 0.648088,0.19169 1.178705,0.40341 1.179153,0.47049 0.0012,0.1683 -0.271259,0.1338 -1.218998,-0.15436 z m 1.301129,-0.6994 c -1.477139,-0.26765 -4.434175,-1.13464 -6.474326,-1.89825 -0.608937,-0.22792 -1.146351,-0.37521 -1.194244,-0.32731 -0.04788,0.0479 0.377131,0.31676 0.944512,0.59748 1.024959,0.5071 1.698256,0.99056 1.031604,0.74074 -0.178904,-0.0671 -0.544853,-0.20079 -0.81321,-0.29723 -0.612588,-0.22014 -4.502156,-2.1825 -6.017739,-3.03605 -0.626173,-0.35266 -1.541031,-0.83931 -2.03302,-1.08146 -0.491994,-0.24215 -1.100015,-0.58344 -1.351159,-0.75841 -0.251146,-0.17497 -0.494152,-0.2806 -0.540016,-0.23474 -0.04586,0.0459 0.256247,0.31706 0.67136,0.60267 0.415113,0.2856 0.71664,0.55739 0.670057,0.60397 -0.08905,0.089 -0.23204,-0.0133 -2.255237,-1.61414 -1.345375,-1.06454 -1.611649,-1.49297 -0.376687,-0.60608 1.197231,0.85978 1.014073,0.44681 -0.264423,-0.5962 -0.646569,-0.52748 -1.599478,-1.35445 -2.117572,-1.83769 -0.905891,-0.84496 -1.317653,-1.00599 -0.588959,-0.23033 0.194168,0.20668 0.312278,0.41654 0.262462,0.46635 -0.09817,0.0982 -2.226892,-2.06004 -3.456863,-3.50476 -0.916186,-1.07614 -3.192022,-4.26633 -3.561818,-4.99283 -0.145631,-0.28609 -0.489972,-0.85384 -0.765208,-1.26167 -0.710013,-1.05203 -2.590296,-5.05121 -3.368,-7.16343 -1.676243,-4.55256 -2.427822,-8.4355 -2.581419,-13.336583 -0.187732,-5.990212 0.649882,-11.162235 2.677946,-16.535655 0.591798,-1.56798 2.314753,-5.188331 3.160408,-6.640776 0.849951,-1.459829 1.914356,-2.927636 2.005019,-2.764911 0.02489,0.04475 0.544368,-0.540783 1.154336,-1.301131 0.60997,-0.76035 1.632378,-1.931369 2.272019,-2.602267 0.639642,-0.670896 1.173208,-1.293 1.185706,-1.382453 0.04616,-0.330626 1.03215,-1.40742 1.425699,-1.557047 0.223656,-0.08504 0.441367,-0.287374 0.483806,-0.449645 0.04242,-0.162273 0.419588,-0.559692 0.838125,-0.883157 1.871542,-1.446414 2.954781,-2.232371 3.464246,-2.51353 0.302258,-0.166809 0.952103,-0.560884 1.444098,-0.875724 1.503853,-0.962364 2.439625,-1.467303 2.439625,-1.316422 0,0.07902 -0.786785,0.605331 -1.748404,1.169589 -1.858417,1.090483 -4.303353,2.786697 -4.185969,2.904085 0.03872,0.03872 0.310274,-0.108435 0.603429,-0.327028 1.738759,-1.296518 6.533608,-3.880561 9.276991,-4.999564 3.203634,-1.306736 5.686283,-2.134945 6.369697,-2.124923 0.544976,0.008 0.0043,0.242865 -1.289137,0.560247 -1.124056,0.275772 -3.211366,1.030665 -4.635283,1.676393 -0.402542,0.182545 -1.20762,0.533702 -1.789061,0.78035 -0.986201,0.418345 -2.001208,1.087243 -1.252026,0.825097 0.161189,-0.0564 0.251656,-0.03553 0.201035,0.04636 -0.05059,0.0819 -0.361345,0.237795 -0.690508,0.346429 -0.329165,0.108633 -0.74448,0.333539 -0.92293,0.499791 -0.178451,0.16625 -0.409095,0.302274 -0.512544,0.302274 -0.10345,0 -0.320558,0.146378 -0.482466,0.325283 -0.161908,0.178906 -0.253064,0.325284 -0.202572,0.325284 0.05047,0 0.812018,-0.358312 1.692287,-0.796248 2.632785,-1.309825 6.886334,-2.917527 6.886334,-2.602807 0,0.08042 -0.117618,0.146222 -0.261368,0.146222 -0.180331,0 -0.228087,0.08671 -0.154045,0.279665 0.05901,0.153816 0.06129,0.233614 0.0049,0.177327 -0.05631,-0.05629 -0.517585,0.0826 -1.025107,0.308628 -3.102219,1.381619 -4.11358,1.871561 -4.031923,1.953218 0.03301,0.03304 0.485656,-0.134613 1.005829,-0.372544 0.956364,-0.437449 2.874482,-1.18784 3.32314,-1.300052 0.134178,-0.03356 0.509789,-0.12666 0.834688,-0.206891 0.324898,-0.08023 0.667666,-0.193428 0.761704,-0.25155 0.147487,-0.09115 1.652096,-0.447763 3.811445,-0.903365 0.335447,-0.07078 0.609902,-0.06533 0.609902,0.01211 0,0.236457 0.694436,0.150667 1.409883,-0.174176 0.3729,-0.169309 0.722117,-0.263717 0.776038,-0.209794 0.09102,0.09102 1.269909,0.08276 3.01861,-0.02115 0.402542,-0.02392 0.805073,0.0089 0.894527,0.07299 0.08948,0.06406 0.345614,0.145774 0.569245,0.181575 0.394726,0.0632 0.390671,0.07202 -0.138995,0.302475 -0.375323,0.1633 -0.863169,0.210732 -1.563209,0.15199 -0.666035,-0.05589 -1.078566,-0.02015 -1.194032,0.103468 -0.131585,0.140864 -0.0102,0.204705 0.477542,0.251223 0.359679,0.0343 0.687427,0.0082 0.728331,-0.05798 0.04088,-0.06618 0.181385,-0.07927 0.312189,-0.02908 0.130796,0.05019 0.19658,0.157973 0.146195,0.239513 -0.05041,0.08154 -0.159755,0.106144 -0.24303,0.05468 -0.08328,-0.05147 -0.151403,0.0077 -0.151403,0.131532 0,0.250305 -1.143815,0.304709 -1.320562,0.06281 -0.05538,-0.07584 -0.860488,-0.01056 -1.789054,0.145077 -0.928573,0.15563 -2.127445,0.295217 -2.66416,0.310192 -1.593681,0.04447 -1.87038,0.08113 -1.87038,0.247798 0,0.08721 0.237862,0.122786 0.528588,0.07905 0.29072,-0.04375 -0.09352,0.09808 -0.853873,0.315172 -5.109692,1.458867 -8.022101,2.890985 -12.274287,6.035619 -1.615232,1.194521 -3.547114,2.853858 -3.443376,2.957596 0.04376,0.04375 0.652261,-0.388508 1.352273,-0.960552 1.705773,-1.393956 2.976973,-2.300149 3.080871,-2.19625 0.04684,0.04681 -0.24565,0.312676 -0.649914,0.590814 -0.404257,0.278138 -0.789396,0.596245 -0.855858,0.706904 -0.134154,0.223368 -0.112142,0.209032 1.040209,-0.677463 0.380598,-0.292793 0.659036,-0.585687 0.618748,-0.650871 -0.04027,-0.06519 0.142336,-0.245871 0.405831,-0.401521 0.291777,-0.172356 0.479079,-0.212063 0.479079,-0.101565 0,0.09979 0.07806,0.133195 0.173465,0.07423 0.0954,-0.05896 0.132272,-0.148395 0.08193,-0.198736 -0.148342,-0.148337 2.301869,-1.654755 3.973286,-2.442826 1.652705,-0.779246 4.091587,-1.702272 5.497093,-2.080441 1.026207,-0.276113 1.008577,-0.274903 1.008577,-0.06924 0,0.08945 -0.141616,0.162643 -0.314694,0.162643 -0.173083,0 -0.520732,0.08443 -0.772547,0.187632 -0.251822,0.103198 -0.541128,0.2053 -0.642911,0.226894 -1.097323,0.232801 -4.707463,1.864575 -6.483252,2.930408 -0.8597,0.515994 -0.451602,0.506524 0.574273,-0.01334 0.789723,-0.400181 1.849437,-0.821446 4.142337,-1.64669 1.512835,-0.544491 5.743609,-1.676473 6.283391,-1.681179 0.289627,-0.0025 0.455838,-0.109053 0.513362,-0.32902 0.04678,-0.178905 0.162806,-0.325283 0.257827,-0.325283 0.09502,0 0.129193,0.113533 0.07595,0.252296 -0.08288,0.215994 0.02901,0.237528 0.777656,0.149655 0.480954,-0.05645 1.074178,-0.165638 1.318273,-0.242632 0.244094,-0.07699 0.68323,-0.116962 0.97585,-0.08881 0.292626,0.02815 0.403961,0.01871 0.247421,-0.02097 -0.461377,-0.116956 -0.325452,-0.37481 0.197577,-0.37481 0.315744,0 0.542295,0.112289 0.656285,0.325284 0.09574,0.178906 0.308948,0.325283 0.473783,0.325283 0.495278,0 1.464179,0.470349 1.679662,0.815383 0.123749,0.198156 0.378944,0.323109 0.659914,0.323109 1.0038,0 2.71645,0.373879 2.71645,0.593013 0,0.177589 -0.32173,0.199533 -1.66708,0.113696 -4.018132,-0.256367 -8.579335,-0.004 -8.579335,0.474704 0,0.09467 -0.08756,0.08689 -0.215301,-0.01913 -0.141746,-0.117638 -0.270189,-0.123805 -0.375944,-0.01805 -0.08835,0.08835 -0.697165,0.309315 -1.352924,0.491037 -0.655759,0.181719 -1.34655,0.443818 -1.5351,0.582439 -0.338753,0.24906 -0.338003,0.250694 0.06379,0.138204 0.38549,-0.107923 0.392252,-0.09887 0.130146,0.174273 -0.216156,0.22526 -0.326477,0.246597 -0.505752,0.09781 -0.420184,-0.348719 -4.867999,1.677738 -6.970838,3.175964 -1.224499,0.872436 -4.038469,3.13658 -4.038469,3.249393 0,0.05185 0.139059,-0.0061 0.309026,-0.128874 0.169961,-0.122726 1.066525,-0.773938 1.992362,-1.447138 2.212312,-1.60863 3.362125,-2.296477 5.026904,-3.00722 0.755168,-0.322406 1.533894,-0.690778 1.730496,-0.818606 0.196609,-0.127827 0.391435,-0.177455 0.432945,-0.110284 0.04149,0.06717 -0.558474,0.408055 -1.333315,0.757519 -1.713894,0.773 -3.76461,1.955305 -4.467499,2.575662 -0.459021,0.405129 -0.377585,0.381868 0.700405,-0.20007 4.295762,-2.319002 6.80228,-3.401875 8.11778,-3.50707 0.394668,-0.03156 1.016772,-0.09688 1.382449,-0.145164 0.555328,-0.07332 0.589469,-0.0634 0.207213,0.06019 -0.251718,0.08139 -0.552212,0.22644 -0.66777,0.322345 -0.11556,0.0959 -0.455937,0.202995 -0.756393,0.237976 -0.300458,0.03498 -0.573272,0.144566 -0.606257,0.243518 -0.03301,0.09895 -0.23914,0.179913 -0.458123,0.179913 -0.218991,0 -0.440286,0.109783 -0.491774,0.243962 -0.05151,0.13418 -0.177275,0.244904 -0.27952,0.246056 -0.102245,0.0012 -0.551843,0.183671 -0.999111,0.405601 -1.01299,0.502641 -0.302412,0.345302 0.830448,-0.183879 0.797424,-0.372494 2.260399,-0.868949 2.571473,-0.872623 0.166887,-0.002 -0.03295,0.239967 -0.203303,0.24612 -0.367995,0.01329 -1.653523,0.469237 -1.653523,0.586467 0,0.186329 0.02416,0.182779 0.712405,-0.1048 0.324215,-0.135465 1.229717,-0.323877 2.012224,-0.418693 2.487117,-0.301361 2.720651,-0.341129 2.878378,-0.490154 0.220877,-0.208689 -0.928596,-0.184431 -1.485714,0.03136 -0.648006,0.250988 -2.034482,0.323863 -1.960883,0.103065 0.03227,-0.09676 0.383628,-0.290882 0.780834,-0.431392 0.397206,-0.140511 0.764704,-0.312973 0.816658,-0.383253 0.05194,-0.07028 0.402007,-0.164852 0.777902,-0.210161 1.17566,-0.141708 5.084682,-0.166997 5.167235,-0.03343 0.04325,0.07 -0.273312,0.136197 -0.703487,0.147114 -0.430185,0.01091 -1.001719,0.03387 -1.270074,0.051 -0.268357,0.01713 -0.725785,0.0448 -1.016505,0.06148 -0.544245,0.03122 -0.759368,0.355609 -0.235834,0.355609 0.161017,0 0.368057,0.0753 0.460092,0.167333 0.196351,0.196354 2.012055,0.02514 2.012055,-0.189726 0,-0.07714 0.109778,-0.140249 0.243964,-0.140249 0.134177,0 0.243965,0.07319 0.243965,0.162642 0,0.08945 0.176983,0.162642 0.393294,0.162642 0.497956,0 0.907835,0.154718 0.907835,0.342683 0,0.07988 -0.626292,0.145241 -1.391746,0.145241 -0.765473,0 -1.698624,0.06953 -2.07368,0.154514 -0.375059,0.08498 -1.442371,0.27419 -2.371811,0.42046 -0.929433,0.146269 -1.801403,0.308741 -1.937716,0.36105 -0.162073,0.06219 -0.207144,0.02925 -0.130244,-0.09518 0.06468,-0.104655 0.04795,-0.190281 -0.03725,-0.190281 -0.08516,0 -0.196965,0.109783 -0.248459,0.243962 -0.05151,0.13418 -0.251514,0.243963 -0.444496,0.243963 -0.668127,0 -5.340828,2.016868 -5.139394,2.218304 0.04549,0.04547 0.293806,-0.02652 0.551867,-0.15997 0.684385,-0.35391 2.371448,-0.928545 2.461551,-0.838435 0.04254,0.04251 -0.281665,0.227348 -0.720389,0.410756 -1.848084,0.77258 -4.847518,2.350454 -4.571287,2.404758 0.160839,0.03162 0.380407,-0.01038 0.487925,-0.09334 0.107519,-0.08295 0.341864,-0.19896 0.520769,-0.257791 0.393832,-0.129509 0.355646,-0.09616 -1.387606,1.211759 -1.465558,1.099572 -5.190046,4.494442 -5.574442,5.081101 -0.510251,0.778743 -0.280977,0.665638 0.557356,-0.274953 0.458075,-0.513952 0.871313,-0.895999 0.918313,-0.849005 0.04697,0.04696 -0.199712,0.402647 -0.548239,0.790331 -2.399976,2.669625 -2.297075,2.724136 0.217047,0.114982 1.163625,-1.207614 2.055911,-2.23419 1.982853,-2.281277 -0.07306,-0.04708 -0.0818,-0.167968 -0.01942,-0.268627 0.161613,-0.260827 3.603164,-2.192611 4.006136,-2.248684 0.184769,-0.02569 0.701886,-0.227595 1.149154,-0.448632 1.16593,-0.576195 1.773508,-0.716574 0.918585,-0.212236 -0.389302,0.229662 -0.766512,0.41756 -0.838242,0.41756 -0.221474,0 -2.126676,1.12078 -2.641299,1.553799 -0.267951,0.225469 -0.716215,0.507737 -0.996134,0.627255 -0.675381,0.288372 -2.904695,2.268226 -3.113542,2.76515 -0.09073,0.215873 -0.566461,0.825473 -1.057171,1.354658 -1.183541,1.276331 -2.459368,2.934096 -2.516174,3.269432 -0.02508,0.148242 -0.134282,0.248944 -0.242607,0.223784 -0.108317,-0.02514 -0.163377,0.04801 -0.122352,0.162646 0.09648,0.26955 -0.181585,0.812368 -0.359745,0.702256 -0.07519,-0.04647 -0.254483,0.09529 -0.398448,0.315007 -0.371038,0.566281 -0.318222,0.732591 0.07886,0.248287 0.183355,-0.223631 -0.0012,0.256051 -0.410219,1.065954 -0.408979,0.809903 -0.743595,1.561698 -0.743595,1.670649 0,0.108951 -0.219568,0.682333 -0.487925,1.274186 -0.268357,0.591853 -0.487925,1.204645 -0.487925,1.361751 0,0.157114 -0.157808,0.787387 -0.350679,1.400621 -0.192871,0.613227 -0.371911,1.297932 -0.39787,1.521563 -0.02594,0.223637 -0.119524,0.845741 -0.207913,1.382455 -0.36156,2.195462 -0.544964,4.295074 -0.461996,5.288935 0.489762,5.866673 1.652853,10.087693 3.857062,13.997813 0.447828,0.79441 0.814231,1.48082 0.814231,1.52537 0,0.42613 2.691538,3.88313 3.472582,4.46016 0.16787,0.12402 0.498152,0.44299 0.733961,0.70882 0.807574,0.91038 3.537556,2.99156 5.275885,4.02202 0.340154,0.20164 0.586585,0.3985 0.547619,0.43746 -0.03897,0.039 -0.738106,-0.33377 -1.553652,-0.82829 -0.81554,-0.49453 -1.482806,-0.86781 -1.482806,-0.8295 0,0.13727 2.052044,1.5216 3.008869,2.0298 0.536721,0.28508 1.349273,0.7317 1.805682,0.99249 0.899043,0.51373 3.851549,1.37199 4.225759,1.22839 0.126643,-0.0486 0.230264,-0.0269 0.230264,0.0483 0,0.0752 0.362936,0.18473 0.806522,0.24358 0.443593,0.0588 0.855391,0.18605 0.915117,0.28268 0.07541,0.12202 -0.104876,0.13964 -0.590151,0.0577 -0.384304,-0.0649 -1.033964,-0.13688 -1.443699,-0.1599 -0.409727,-0.0231 -1.050518,-0.13421 -1.423978,-0.24709 -0.373461,-0.11288 -0.81259,-0.15306 -0.97585,-0.0893 -0.264055,0.10314 -0.24833,0.14161 0.142422,0.34836 0.622257,0.32925 3.251421,1.01262 4.392683,1.14174 0.564683,0.0639 0.902521,0.16892 0.817328,0.25412 -0.202736,0.20273 -3.024538,-0.27336 -4.634416,-0.78192 -1.359103,-0.42935 -3.813321,-1.4467 -4.859069,-2.01424 -0.796761,-0.43242 -0.925345,-0.40391 -0.453471,0.10057 0.432632,0.46252 1.082195,0.87788 0.892243,0.57053 -0.06079,-0.0984 -0.0672,-0.17886 -0.01419,-0.17886 0.149115,0 1.744734,0.82175 2.199857,1.13294 0.223631,0.15291 0.772548,0.37444 1.219809,0.4923 0.447263,0.11786 0.890031,0.27292 0.983922,0.34456 0.09389,0.0716 0.473614,0.1787 0.843828,0.23791 0.370215,0.0592 0.707764,0.19793 0.750117,0.3083 0.05022,0.13092 0.887461,0.27767 2.409006,0.42227 2.736452,0.26005 3.260837,0.27148 4.744196,0.10339 0.820337,-0.0929 1.080937,-0.0771 0.995927,0.0605 -0.17609,0.28494 1.47407,-0.0204 3.49317,-0.64634 0.93907,-0.29112 0.31942,0.0986 -0.72092,0.4534 -0.53671,0.18305 -0.84166,0.33526 -0.67766,0.33825 0.38992,0.007 2.5336,-0.54379 3.75388,-0.96472 0.92448,-0.3189 1.52664,-0.33908 0.72776,-0.0244 -1.18896,0.46835 -1.66595,0.72409 -1.47538,0.79104 0.46348,0.16284 3.93271,-1.30377 6.66388,-2.81714 1.07051,-0.59319 0.3452,-0.0198 -0.97179,0.76818 -2.08629,1.24833 -7.69046,3.40135 -8.1363,3.12581 -0.1047,-0.0647 -0.13253,-0.0358 -0.0672,0.0698 0.0693,0.11216 -0.12074,0.23974 -0.50346,0.33798 -1.01064,0.25939 -2.36331,0.50062 -3.025191,0.53949 -0.341735,0.02 -0.663797,0.1052 -0.715719,0.18919 -0.0586,0.0947 0.516886,0.10099 1.51587,0.0165 0.88563,-0.075 2.23234,-0.15439 2.99268,-0.17654 2.23139,-0.065 2.78705,-0.14847 3.9034,-0.58628 1.14417,-0.44874 2.10486,-0.77713 2.2606,-0.77276 0.0538,9.3e-4 -0.14424,0.15765 -0.43995,0.34699 -0.31784,0.20351 -0.50279,0.43511 -0.45236,0.56651 0.0469,0.12223 0.0204,0.22224 -0.059,0.22224 -0.0793,0 -0.27201,0.049 -0.42818,0.10896 -0.19076,0.0732 -0.24617,0.0478 -0.16884,-0.0773 0.0633,-0.10243 -0.3311,-0.0257 -0.87644,0.17053 -0.73509,0.26448 -0.9157,0.38511 -0.69833,0.46642 0.33094,0.12378 0.4129,0.0792 -1.17056,0.63658 -0.53672,0.18892 -1.2876,0.40017 -1.66864,0.46945 -1.11243,0.20223 -1.02922,0.39426 0.12355,0.2851 0.64366,-0.061 0.9614,-0.0436 0.81234,0.0444 -0.30556,0.1803 -2.54359,0.49813 -3.5077,0.49813 -0.41044,0 -0.72012,0.0761 -0.72012,0.17694 0,0.11765 0.23162,0.13867 0.69123,0.0628 0.38017,-0.0628 0.64107,-0.0618 0.57976,0.003 -0.1025,0.10713 -1.13275,0.2169 -4.849102,0.5167 l -1.382455,0.11151 0.81321,0.21233 c 0.447269,0.1168 1.142558,0.21487 1.545093,0.21797 0.402536,0.003 0.841669,0.0832 0.975846,0.17783 0.173988,0.1228 -0.455793,0.14687 -2.195653,0.0839 -2.617054,-0.0947 -2.670657,-0.1005 -4.389493,-0.47677 -0.625164,-0.13686 -1.17196,-0.21353 -1.2151,-0.17038 -0.148588,0.14858 0.401699,0.37675 1.131949,0.46934 0.402536,0.0511 0.988045,0.16573 1.301129,0.25488 0.997746,0.28409 2.26391,0.35617 6.221044,0.35412 2.124502,-9.3e-4 3.862732,0.0622 3.862732,0.14078 0,0.0785 -0.38716,0.14276 -0.86036,0.14276 -0.4732,0 -1.29657,0.11971 -1.82972,0.26601 -0.673244,0.18476 -1.701881,0.27171 -3.36743,0.28463 -1.318941,0.0102 -2.398475,0.0735 -2.398961,0.14059 -0.0012,0.14359 0.338631,0.18128 1.178268,0.13073 0.35291,-0.0213 0.609901,0.0377 0.609901,0.13991 0,0.1063 0.372324,0.17762 0.93519,0.17912 0.514352,9.3e-4 1.044967,0.075 1.179144,0.16363 0.16517,0.10909 -0.386458,0.13749 -1.707728,0.0879 -1.78986,-0.0671 -2.334424,-0.12284 -3.496795,-0.35759 -0.25519,-0.0515 -0.346038,-0.0258 -0.243966,0.069 0.252788,0.23484 1.944625,0.5058 3.820087,0.61183 1.620281,0.0916 2.434123,0.23594 1.330227,0.23594 -0.283265,0 -0.515026,0.0695 -0.515026,0.15446 0,0.17756 3.137859,0.0984 3.437379,-0.0867 0.10596,-0.0655 0.47619,-0.10796 0.82274,-0.0944 0.42466,0.0166 0.6603,-0.0541 0.72279,-0.21695 0.0592,-0.15427 0.17664,-0.19469 0.32478,-0.11179 0.52985,0.29653 3.59233,-0.48081 6.32464,-1.60538 2.13043,-0.87683 2.29967,-0.9225 1.1538,-0.3114 -3.11773,1.66272 -8.37332,3.00276 -12.542173,3.19794 -1.735027,0.0812 -2.629631,0.0242 -6.017733,-0.38334 -1.124314,-0.13526 -0.792906,0.12312 0.445111,0.34702 0.557042,0.10073 0.94094,0.22108 0.853098,0.26742 -0.08785,0.0463 -0.818416,-0.0351 -1.623494,-0.18096 z m 4.472651,-0.81331 c 0,-0.0895 -0.237868,-0.15535 -0.528588,-0.14643 -0.500816,0.0153 -0.507228,0.0231 -0.121983,0.14643 0.573929,0.1838 0.650571,0.1838 0.650571,0 z m 1.3008,0.0406 c -1.6e-4,-0.0671 -0.26085,-0.14059 -0.579267,-0.16333 -0.355234,-0.0254 -0.539943,0.0218 -0.477998,0.12198 0.116204,0.18802 1.057756,0.22485 1.057265,0.0414 z m -13.824209,-1.58158 c 0,-0.12804 -0.999898,-0.60359 -1.086664,-0.51682 -0.04432,0.0444 0.127153,0.19317 0.381058,0.33076 0.478053,0.25908 0.705606,0.31907 0.705606,0.18606 z m 18.622468,-3.33833 c 0.0553,-0.0895 -0.0136,-0.16264 -0.15304,-0.16264 -0.13946,0 -0.25357,0.0732 -0.25357,0.16264 0,0.0895 0.0688,0.16264 0.15304,0.16264 0.0842,0 0.19828,-0.0732 0.25357,-0.16264 z m -3.334155,-1.30113 c 0,-0.0895 -0.347651,-0.15165 -0.772552,-0.13822 l -0.772546,0.0244 0.731888,0.11379 c 0.402531,0.0626 0.750181,0.12478 0.772543,0.13821 0.02242,0.0135 0.04065,-0.0487 0.04065,-0.13821 z m 3.903395,-0.32529 c 0.21685,-0.14014 0.21685,-0.15614 0,-0.14394 -0.13417,0.007 -0.42693,0.0723 -0.65057,0.14394 l -0.4066,0.13023 0.4066,0.0137 c 0.22364,0.007 0.5164,-0.0572 0.65057,-0.14394 z M 70.376102,124.7718 c 0,-0.0291 -0.201267,-0.2304 -0.447262,-0.44727 l -0.447262,-0.39429 0.394293,0.44727 c 0.36853,0.41803 0.500231,0.52184 0.500231,0.39429 z m -1.463774,-1.73609 c 0,-0.0895 -0.07751,-0.16264 -0.172236,-0.16264 -0.09473,0 -0.127011,0.0732 -0.07173,0.16264 0.05526,0.0895 0.132795,0.16264 0.172242,0.16264 0.03947,0 0.07172,-0.0732 0.07172,-0.16264 z m 15.776243,-0.87241 c 0,-0.12594 -1.311499,-0.96049 -1.388467,-0.88352 -0.04481,0.0448 0.194396,0.27083 0.531533,0.50231 0.573911,0.39404 0.856934,0.51994 0.856934,0.38121 z M 74.767427,81.666586 c 0,-0.206647 -0.07512,-0.114378 -0.312223,0.383474 -0.182587,0.383388 -0.1792,0.388582 0.05932,0.0909 0.139114,-0.173643 0.252934,-0.387107 0.252934,-0.474371 z M 62.233088,77.25213 c 3.26e-4,-0.08945 -0.106867,-0.02059 -0.238199,0.153069 -0.131333,0.173636 -0.236196,0.429798 -0.23303,0.569244 0.0062,0.27601 0.470184,-0.435084 0.471229,-0.722313 z m 0.813204,-1.626414 c 3.26e-4,-0.08946 -0.10686,-0.02059 -0.238193,0.153068 -0.131339,0.173637 -0.236202,0.429798 -0.23303,0.569245 0.0062,0.27601 0.470184,-0.435091 0.471223,-0.722313 z m 4.381041,-6.156252 c 0.659225,-0.818349 1.412895,-1.751456 1.674823,-2.073572 0.26192,-0.322116 1.314406,-1.304181 2.338861,-2.182366 1.024449,-0.878185 1.862635,-1.609214 1.862635,-1.624511 0,-0.01529 -0.215683,-0.01498 -0.479295,6.77e-4 -0.583948,0.03474 -1.478859,0.747659 -3.686124,2.936502 -1.503461,1.490964 -4.61723,5.41229 -4.61723,5.814759 0,0.09212 0.02717,0.136993 0.06037,0.09972 0.0332,-0.03725 0.819997,-1.017976 1.748403,-2.179346 2.661289,-3.329092 2.780014,-3.355345 0.287198,-0.0635 -1.39848,1.846738 -2.421281,3.388851 -2.421281,3.650656 0,0.07616 0.457435,-0.543181 1.016512,-1.376308 0.559084,-0.833127 1.555877,-2.184336 2.215103,-3.002685 z m 4.240223,-4.977283 c 0.486658,-0.451345 0.962388,-0.817507 1.057169,-0.813693 0.204557,0.0082 -1.147876,1.240406 -1.616732,1.472972 -0.178905,0.08874 0.0729,-0.207934 0.559563,-0.659279 z m -2.49651,3.775196 c -0.112793,-0.112791 -0.421358,0.116378 -0.421358,0.312938 0,0.107849 0.09332,0.09551 0.247893,-0.03278 0.136343,-0.113153 0.214399,-0.239226 0.173465,-0.280163 z m 3.244414,0.113785 c 0.247044,-0.272984 0.253788,-0.314278 0.0378,-0.231388 -0.14461,0.05549 -0.302885,0.205019 -0.351717,0.332283 -0.12151,0.316656 -0.04032,0.290564 0.313937,-0.100895 z m 0.908944,-0.92819 c 0.202301,-0.25796 0.196548,-0.263713 -0.06141,-0.06141 -0.270921,0.21247 -0.357078,0.34603 -0.223219,0.34603 0.03375,0 0.161852,-0.128081 0.284623,-0.284623 z M 70.304919,67.0321 c 0.143559,0.05509 0.233829,-0.01116 0.233829,-0.171633 0,-0.143751 0.07266,-0.261364 0.161459,-0.261364 0.190154,0 2.818188,-2.386931 2.910683,-2.643648 0.09314,-0.258514 -0.777398,0.394645 -1.777793,1.333868 -0.481465,0.452021 -0.900094,0.821854 -0.930288,0.821854 -0.03018,0 -0.296843,0.237864 -0.592548,0.528587 -0.324929,0.319453 -0.500435,0.625107 -0.443587,0.772548 0.06856,0.177812 0.109025,0.147177 0.149239,-0.11299 0.03596,-0.232451 0.136731,-0.325654 0.289006,-0.267222 z m 10.885703,0.0568 c 0.05698,-0.0922 -0.0083,-0.119461 -0.153038,-0.06392 -0.281764,0.108122 -0.33332,0.224699 -0.09937,0.224699 0.08417,0 0.197757,-0.07235 0.252406,-0.160777 z m -6.01659,-2.708475 c 0.53672,-0.497681 0.756289,-0.753875 0.487925,-0.569325 -0.752213,0.517305 -1.808294,1.474693 -1.626415,1.474432 0.08945,-1.28e-4 0.601776,-0.407427 1.13849,-0.905107 z m -4.317369,-0.130737 c 0.358695,-0.432204 -0.07636,-0.276994 -0.492867,0.175835 -0.351841,0.382523 -0.357834,0.409746 -0.05563,0.252841 0.186264,-0.09671 0.433088,-0.289614 0.548499,-0.428676 z m 22.245229,-0.02582 c -0.05403,-0.05404 -0.194328,-0.05982 -0.311732,-0.01284 -0.129746,0.05192 -0.09121,0.09046 0.09826,0.09826 0.171447,0.0071 0.267509,-0.03138 0.21347,-0.08543 z M 74.300254,63.386931 c 0.202301,-0.257959 0.196547,-0.263711 -0.06141,-0.06141 -0.27092,0.21247 -0.357078,0.34603 -0.223219,0.34603 0.03375,0 0.161853,-0.128081 0.284622,-0.284623 z m 18.12129,-3.470877 c 0.09358,-0.07297 0.313145,-0.127987 0.487926,-0.122251 0.174786,0.0057 0.555653,-0.04343 0.846373,-0.109262 0.354041,-0.08017 0.528588,-0.05927 0.528588,0.06329 0,0.2045 0.627482,0.24412 1.084524,0.06848 0.263145,-0.101125 0.250457,-0.129256 -0.108674,-0.240941 l -0.406605,-0.126447 0.406605,0.05738 c 0.223631,0.03156 0.546691,0.11583 0.717906,0.18726 0.219967,0.09177 0.276797,0.07404 0.1937,-0.0604 -0.07809,-0.126345 0.02225,-0.190281 0.298607,-0.190281 0.228912,0 0.416202,0.07089 0.416202,0.157538 0,0.08665 -0.128081,0.112467 -0.284624,0.05738 -0.22012,-0.07746 -0.242508,-0.05445 -0.09878,0.101492 0.147794,0.160363 0.264338,0.159376 0.569243,-0.0048 0.210876,-0.113558 0.676158,-0.22109 1.033969,-0.23896 0.357817,-0.01787 0.815246,-0.04152 1.016507,-0.05255 0.69691,-0.03822 0.361073,-0.278005 -0.731885,-0.522547 -0.941745,-0.210712 -1.294371,-0.215395 -2.480278,-0.03294 -1.497061,0.23033 -3.673744,0.665146 -4.066039,0.812235 -0.134185,0.0503 -0.419434,0.114546 -0.6339,0.14275 -0.214465,0.0282 -0.46502,0.126362 -0.556791,0.218134 -0.200843,0.200842 1.5022,0.04231 1.767429,-0.164526 z m 3.285513,-3.305372 c 0.231339,-0.231339 -0.193418,-0.28948 -1.333991,-0.182598 -1.647542,0.154388 -1.642354,0.485305 0.0055,0.366689 0.678079,-0.0488 1.275791,-0.131643 1.328238,-0.184091 z m -0.648186,79.321338 c 0.202314,-0.0389 0.495069,-0.0374 0.650571,0.003 0.155497,0.0407 -0.01002,0.0726 -0.367841,0.0707 -0.357816,-0.002 -0.485042,-0.0351 -0.28273,-0.074 z m 4.430084,0.0209 c 0.612065,-0.18309 4.553965,-0.80871 4.553965,-0.72274 0,0.1302 -2.60808,0.61964 -3.82208,0.71726 -0.536708,0.0432 -0.866062,0.0456 -0.731885,0.006 z m -0.03051,-1.48082 c 0.117406,-0.047 0.257685,-0.0412 0.311737,0.0128 0.05404,0.054 -0.04204,0.0925 -0.213474,0.0854 -0.189466,-0.007 -0.228003,-0.0463 -0.09826,-0.0983 z m 2.592105,-0.15925 c 0.11181,-0.0451 0.29479,-0.0451 0.4066,0 0.11182,0.0451 0.0204,0.082 -0.20331,0.082 -0.22363,0 -0.31511,-0.0369 -0.20329,-0.082 z m 2.67598,-0.46748 c 0.048,-0.048 0.99334,-0.36649 2.10078,-0.70777 1.10744,-0.34129 2.1599,-0.67874 2.33881,-0.74989 0.24572,-0.0977 0.28211,-0.0823 0.14878,0.063 -0.23993,0.2614 -3.75251,1.48198 -4.26487,1.48198 -0.22591,0 -0.3715,-0.0393 -0.3235,-0.0873 z m -7.870345,-0.18648 c 0.117404,-0.047 0.257685,-0.0412 0.31173,0.0128 0.05403,0.054 -0.04204,0.0925 -0.213469,0.0854 -0.189465,-0.007 -0.228007,-0.0463 -0.09826,-0.0983 z m 2.022849,-9.3e-4 c 0.156547,-0.0409 0.412706,-0.0409 0.569244,0 0.156548,0.0409 0.02846,0.0744 -0.284622,0.0744 -0.313085,0 -0.44117,-0.0335 -0.284622,-0.0744 z m 1.717896,-0.32427 c 0.11742,-0.047 0.2577,-0.0412 0.31174,0.0128 0.054,0.054 -0.0419,0.0925 -0.21347,0.0854 -0.18947,-0.007 -0.22801,-0.0463 -0.0983,-0.0983 z m 0.88437,-0.16366 c 0.15654,-0.0408 0.4127,-0.0408 0.56925,0 0.15654,0.0409 0.0285,0.0744 -0.28463,0.0744 -0.31308,0 -0.44116,-0.0335 -0.28462,-0.0744 z m 1.06733,9.3e-4 c 0.11742,-0.047 0.2577,-0.0412 0.31174,0.0128 0.054,0.054 -0.0419,0.0925 -0.21347,0.0854 -0.18947,-0.007 -0.22801,-0.0463 -0.0983,-0.0983 z m 2.63277,-0.37682 c 0,-0.0895 0.0775,-0.16264 0.17224,-0.16264 0.0947,0 0.12701,0.0732 0.0717,0.16264 -0.0553,0.0895 -0.1328,0.16265 -0.17224,0.16265 -0.0394,0 -0.0717,-0.0732 -0.0717,-0.16265 z m -1.6794,-0.33735 c 0.0961,-0.0961 0.3486,-0.19686 0.56112,-0.22392 0.21251,-0.0271 0.88496,-0.16801 1.49431,-0.31321 1.2698,-0.30258 1.60362,-0.32964 1.25039,-0.10137 -0.13418,0.0867 -0.43537,0.15879 -0.6693,0.16016 -0.23393,9.3e-4 -0.61142,0.14886 -0.83886,0.32777 -0.45071,0.35453 -2.14338,0.4963 -1.79766,0.15057 z m -4.094379,-0.47585 c 0.05525,-0.0895 0.517034,-0.15399 1.026119,-0.1434 0.76499,0.0159 0.84093,0.0407 0.43765,0.1434 -0.7379,0.18777 -1.579817,0.18777 -1.463769,0 z m 3.008869,-0.38821 c 0.40254,-0.10967 0.80022,-0.16434 0.88374,-0.1215 0.23819,0.12219 -0.41773,0.32438 -1.04639,0.32254 -0.56331,-0.002 -0.56161,-0.004 0.16265,-0.20104 z m 1.13849,-0.11494 c 0,-0.0811 0.14638,-0.14742 0.32529,-0.14742 0.1789,0 0.32528,0.028 0.32528,0.0623 0,0.0343 -0.14638,0.10064 -0.32528,0.14742 -0.17891,0.0468 -0.32529,0.0188 -0.32529,-0.0623 z m -26.531329,-0.59468 c -0.206474,-0.26328 -0.198821,-0.26673 0.102067,-0.046 0.17891,0.13123 0.35578,0.2593 0.39305,0.28462 0.03725,0.0253 -0.0087,0.046 -0.102066,0.046 -0.09341,0 -0.270281,-0.12808 -0.393051,-0.28462 z m 28.970959,-1.50445 c 0,-0.0895 0.0775,-0.16263 0.17224,-0.16263 0.0947,0 0.127,0.0732 0.0717,0.16263 -0.0553,0.0895 -0.13279,0.16265 -0.17224,0.16265 -0.0394,0 -0.0717,-0.0732 -0.0717,-0.16265 z m -33.910781,-2.27697 c -0.162898,-0.18 -0.259586,-0.36388 -0.21486,-0.4086 0.04475,-0.0447 0.214601,0.066 0.377499,0.24596 0.162904,0.18 0.259591,0.36387 0.214865,0.40859 -0.04475,0.0447 -0.214607,-0.0659 -0.377504,-0.24595 z m 32.566281,0.14246 c 0.11032,-0.11116 0.24155,-0.16113 0.29163,-0.11105 0.0501,0.0501 -0.0402,0.14102 -0.20059,0.2021 -0.23179,0.0883 -0.25047,0.0696 -0.0911,-0.0911 z m 1.10053,-0.46108 c 0.17891,-0.0737 0.8376,-0.33728 1.46378,-0.58579 0.62616,-0.2485 1.93208,-0.846 2.90202,-1.32775 0.96993,-0.48176 1.7144,-0.79646 1.65438,-0.69933 -0.1558,0.25209 -3.48681,1.89949 -4.79456,2.37122 -1.00567,0.36275 -1.99183,0.55721 -1.22562,0.24165 z m 4.21911,-0.24165 c 0.17364,-0.13912 0.38711,-0.25294 0.47438,-0.25294 0.20663,0 0.11437,0.0751 -0.38348,0.31223 -0.38339,0.18259 -0.38858,0.1792 -0.0909,-0.0593 z m -16.986469,-2.042 c -0.202018,-0.13055 -0.188039,-0.15766 0.08132,-0.15766 0.178905,0 0.435066,0.071 0.569245,0.15766 0.202017,0.13056 0.188039,0.15766 -0.08132,0.15766 -0.178905,0 -0.435066,-0.071 -0.569245,-0.15766 z m 1.921204,-0.43638 c 0.117404,-0.047 0.257686,-0.0412 0.311732,0.0128 0.05403,0.054 -0.04199,0.0925 -0.21347,0.0854 -0.189466,-0.007 -0.228008,-0.0463 -0.09826,-0.0983 z m 25.158655,-0.78103 c 1.19,-0.75865 1.75331,-0.96431 1.05872,-0.38652 -0.4202,0.34956 -1.84661,1.11738 -2.06983,1.11417 -0.07,-9.3e-4 0.38493,-0.32844 1.01111,-0.72765 z M 89.784608,122.5793 c -0.747307,-0.30383 -1.04726,-0.52495 -0.691172,-0.50952 0.332238,0.0144 1.904379,0.77528 1.61286,0.78061 -0.134178,0.003 -0.548941,-0.11955 -0.921688,-0.27109 z m -1.517937,-0.76347 c -0.223631,-0.12784 -0.329102,-0.23503 -0.234388,-0.23819 0.09472,-0.003 0.314288,0.10169 0.487925,0.23302 0.401559,0.30373 0.2733,0.30634 -0.253537,0.005 z m 34.967999,-0.46801 c 0,-0.0338 0.12807,-0.16185 0.28462,-0.28462 0.25796,-0.20231 0.26372,-0.19656 0.0614,0.0614 -0.21247,0.27092 -0.34603,0.35708 -0.34603,0.22321 z m 0.75645,-0.63778 c 0.15272,-0.26539 1.49351,-1.41515 1.65026,-1.41515 0.15385,0 -1.14987,1.30668 -1.48762,1.49099 -0.24388,0.13308 -0.27463,0.11875 -0.16264,-0.0758 z m 3.26401,-3.07484 c 0.73392,-0.73391 1.37048,-1.29831 1.41459,-1.2542 0.14263,0.14262 -2.19956,2.58861 -2.47876,2.58861 -0.16542,0 0.24737,-0.51761 1.06417,-1.33441 z m 1.99729,-2.17568 c 0,-0.0521 0.25616,-0.40722 0.56925,-0.7893 0.31307,-0.38208 0.56924,-0.76968 0.56924,-0.86133 0,-0.0916 0.11143,-0.25911 0.24763,-0.37215 0.1362,-0.11303 0.20713,-0.33315 0.15762,-0.48916 -0.10335,-0.32562 0.19308,-1.07074 0.60823,-1.52882 0.15617,-0.17231 0.32629,-0.44677 0.37807,-0.60991 0.0517,-0.16314 0.19525,-0.29661 0.31884,-0.29661 0.25793,0 2.53269,-4.44946 3.031,-5.92868 0.1811,-0.53757 0.40191,-1.11315 0.49071,-1.27905 0.2828,-0.52843 0.31748,-0.18074 0.0581,0.58309 -0.13772,0.40568 -0.20806,0.84795 -0.15629,0.98284 0.0517,0.1349 -0.0384,0.48973 -0.20044,0.78853 -0.162,0.2988 -0.29651,0.62416 -0.2989,0.72304 -0.003,0.0989 -0.32288,0.85005 -0.71221,1.6693 -0.38932,0.81925 -0.71834,1.69781 -0.73114,1.95236 -0.0127,0.25455 -0.10487,0.5646 -0.20459,0.68899 -0.0997,0.1244 -0.38601,0.64852 -0.63618,1.16472 -0.45343,0.93559 -0.88672,1.48191 -0.88672,1.11803 0,-0.19461 -0.91961,0.78577 -1.77048,1.88749 -0.47375,0.61341 -0.83179,0.87023 -0.83179,0.59662 z m 0.30439,-1.61313 c 0.0878,-0.1789 0.27888,-0.47166 0.42455,-0.65056 l 0.26485,-0.32529 -0.1597,0.32529 c -0.0878,0.1789 -0.27887,0.47166 -0.42455,0.65056 l -0.26484,0.32529 z m 2.46051,-4.13776 c 0,-0.0842 0.0724,-0.19776 0.16079,-0.25241 0.0922,-0.057 0.11945,0.008 0.0639,0.15304 -0.10812,0.28176 -0.2247,0.33332 -0.2247,0.0994 z m 2.10582,-0.54597 c 0.0771,-0.19699 0.43144,-0.94411 0.78746,-1.66026 0.35602,-0.71617 0.7618,-1.57614 0.90174,-1.91105 0.37144,-0.88897 0.4858,-0.7459 0.13079,0.16362 -0.68906,1.76532 -0.91231,2.26558 -1.26224,2.82836 -0.20245,0.32562 -0.33251,0.62764 -0.28901,0.67114 0.0435,0.0435 -0.0307,0.12123 -0.16489,0.17272 -0.1941,0.0745 -0.21534,0.0204 -0.10385,-0.26453 z m -1.12997,-1.53729 c 0,-0.0777 0.10615,-0.28322 0.23588,-0.45686 0.22757,-0.30459 0.2326,-0.30272 0.14301,0.0527 -0.0926,0.36712 -0.37889,0.67254 -0.37889,0.40409 z m 2.77067,-5.00938 c 0.003,-0.17444 0.11739,-0.50013 0.25381,-0.72375 l 0.24805,-0.40661 -0.0942,0.56416 c -0.10718,0.64182 -0.41683,1.0719 -0.40764,0.5662 z m 1.30822,-0.81862 c 0.007,-0.18947 0.0463,-0.22801 0.0983,-0.0983 0.047,0.1174 0.0412,0.25768 -0.0128,0.31171 -0.054,0.054 -0.0925,-0.0419 -0.0854,-0.21345 z m -0.80319,-1.12494 c 0,-0.1789 0.0629,-0.47166 0.13978,-0.65056 l 0.13978,-0.325285 v 0.325285 c 0,0.1789 -0.0629,0.47166 -0.13978,0.65056 l -0.13978,0.32528 z m -39.636384,-3.049505 -0.477695,-0.528594 0.528588,0.477697 c 0.29072,0.262724 0.528586,0.500593 0.528586,0.528582 0,0.125647 -0.134203,0.01507 -0.579479,-0.477685 z m 4.482874,0.304528 c 0,-0.03377 0.12808,-0.16185 0.28462,-0.284623 0.25796,-0.202299 0.26371,-0.196551 0.0614,0.06139 -0.21247,0.270921 -0.34603,0.357074 -0.34603,0.223213 z m 35.63479,-0.538891 c -0.009,-0.374902 0.057,-0.726859 0.14642,-0.782148 0.18957,-0.117152 0.18957,0.465261 0,1.057159 -0.11121,0.347278 -0.13258,0.307151 -0.14642,-0.275011 z M 95.789217,95.305323 c 0.0019,-0.357815 0.0351,-0.485044 0.07401,-0.282722 0.03891,0.202308 0.03744,0.49506 -0.0031,0.650563 -0.04069,0.155497 -0.07254,-0.01005 -0.07073,-0.367841 z m 6.314843,-0.66412 c 0.007,-0.189472 0.0463,-0.228009 0.0983,-0.09826 0.047,0.117403 0.0412,0.257682 -0.0128,0.311725 -0.0541,0.05404 -0.0925,-0.04204 -0.0854,-0.213465 z m 34.83904,-0.79966 c 9.3e-4,-0.44726 0.0328,-0.610923 0.0702,-0.363703 0.0374,0.247218 0.0364,0.613174 -0.003,0.813204 -0.0386,0.200052 -0.0692,-0.0028 -0.068,-0.449501 z m -0.69708,-7.074902 c 0,-0.178904 0.028,-0.325285 0.0623,-0.325285 0.0343,0 0.10063,0.146381 0.14742,0.325285 0.0468,0.178905 0.0188,0.32528 -0.0623,0.32528 -0.0811,0 -0.14741,-0.146375 -0.14741,-0.32528 z m -0.24615,-1.016513 c -0.0404,-0.111815 -0.21364,-0.788812 -0.38514,-1.504431 -0.17151,-0.715625 -0.36656,-1.447516 -0.43345,-1.62642 -0.0876,-0.234401 -0.071,-0.27906 0.0596,-0.159831 0.36164,0.330105 1.21236,3.493986 0.93947,3.493986 -0.059,0 -0.14019,-0.09149 -0.18051,-0.203304 z m -1.21985,-4.228684 c -9.3e-4,-0.111816 -0.0418,-0.386271 -0.0902,-0.609901 -0.064,-0.295688 -0.0191,-0.257324 0.16486,0.14065 0.29834,0.645623 0.30195,0.672553 0.0902,0.672553 -0.0895,0 -0.16364,-0.09148 -0.16487,-0.203302 z m -0.75985,-2.19566 c -0.0557,-0.156541 -0.13203,-0.357809 -0.16959,-0.447268 -0.0376,-0.08945 0.0469,-0.02059 0.18771,0.153069 0.25569,0.315296 0.33291,0.578822 0.16961,0.578822 -0.0475,0 -0.13201,-0.128081 -0.18773,-0.284623 z m -0.85688,-1.978433 c -0.0999,-0.186653 -0.11366,-0.33918 -0.0305,-0.33918 0.16716,0 0.39792,0.492621 0.28409,0.606452 -0.0395,0.03959 -0.15366,-0.08067 -0.25351,-0.267244 z m -1.29098,-2.343736 c -0.20339,-0.329091 -0.34113,-0.684355 -0.30609,-0.789483 0.0351,-0.105121 0.23012,0.07813 0.43351,0.407214 0.20339,0.32909 0.34112,0.684355 0.30608,0.789477 -0.0351,0.105127 -0.23011,-0.07813 -0.4335,-0.407208 z m -1.86473,-2.996705 c -0.41585,-0.594576 -1.09167,-1.45665 -2.19194,-2.796039 -0.31763,-0.386664 -0.45237,-0.659784 -0.32528,-0.659343 0.29132,10e-4 1.27414,0.935157 1.27414,1.211039 0,0.120697 0.25617,0.475612 0.56925,0.788701 0.31308,0.313084 0.56924,0.686347 0.56924,0.82947 0,0.143128 0.0713,0.26023 0.15847,0.26023 0.0872,0 0.27201,0.219562 0.41078,0.487925 0.35611,0.688627 0.0452,0.607007 -0.46466,-0.121983 z m -10.49857,-2.958842 c -0.1245,-0.07694 -0.16549,-0.222876 -0.0948,-0.337325 0.0933,-0.150957 0.16368,-0.132003 0.27971,0.07533 0.18815,0.336211 0.1113,0.445075 -0.18495,0.261989 z M 86.152346,68.225519 c 0,-0.08945 0.07751,-0.162642 0.172241,-0.162642 0.09473,0 0.127006,0.07319 0.07172,0.162642 -0.05526,0.08946 -0.132789,0.162642 -0.172241,0.162642 -0.03947,0 -0.07172,-0.07319 -0.07172,-0.162642 z M 116.607,68.189652 c -0.20127,-0.09707 -0.36595,-0.241067 -0.36595,-0.319999 0,-0.166878 0.58488,0.117989 0.73243,0.356736 0.11877,0.192167 0.10537,0.190823 -0.36648,-0.03673 z m 0.72307,-0.611124 c -0.42005,-0.266387 -0.76373,-0.563711 -0.76373,-0.660717 0,-0.196068 1.52863,0.587301 1.81178,0.928473 0.32403,0.390425 -0.23568,0.247431 -1.04805,-0.267756 z m 8.91349,-0.166223 c -0.6845,-0.700995 -0.67086,-1.11708 0.0155,-0.475013 0.44476,0.41601 0.78623,0.947243 0.67827,1.055203 -0.0354,0.03542 -0.34765,-0.225662 -0.69384,-0.58019 z m -11.38497,-0.111543 c -0.74891,-0.400858 -1.301,-0.864302 -1.02962,-0.864302 0.24545,0 1.76151,0.906777 1.76151,1.053589 0,0.141716 -0.21959,0.08492 -0.73189,-0.189287 z M 89.036522,66.904204 c 0.110328,-0.111152 0.241562,-0.161124 0.291636,-0.111049 0.0501,0.05007 -0.0402,0.141018 -0.200585,0.202096 -0.231801,0.08826 -0.250481,0.06958 -0.09105,-0.09104 z m 1.181864,-0.396373 c 0,-0.03466 0.219567,-0.176559 0.487925,-0.315333 0.268357,-0.138773 0.487924,-0.193292 0.487924,-0.121155 0,0.07214 -0.219567,0.214039 -0.487924,0.315334 -0.268358,0.101292 -0.487925,0.155813 -0.487925,0.121154 z m 1.301135,-0.44161 c 0.288501,-0.300112 1.003001,-0.431439 1.082711,-0.199005 0.03068,0.08945 -0.108896,0.168961 -0.310164,0.176688 -0.201268,0.0077 -0.512323,0.07301 -0.691228,0.145072 -0.291421,0.117384 -0.299885,0.104606 -0.08132,-0.122755 z m 20.289539,-0.136787 c -0.67049,-0.345139 -0.7583,-0.470708 -0.32528,-0.465206 0.31185,0.004 1.14089,0.577798 1.01408,0.701929 -0.0434,0.04248 -0.35335,-0.06405 -0.6888,-0.236723 z m -21.89525,-0.04779 c 0.05613,-0.06053 0.292066,-0.144511 0.524334,-0.186628 0.232273,-0.04212 0.611961,-0.148684 0.843755,-0.236811 0.596199,-0.226676 0.717869,-0.187284 0.234314,0.07586 -0.442381,0.240745 -1.770428,0.528808 -1.602403,0.347575 z m 20.60428,-0.532131 c 0.11741,-0.04698 0.25768,-0.04121 0.31173,0.01284 0.054,0.05404 -0.0419,0.09249 -0.21346,0.08543 -0.18948,-0.0078 -0.22801,-0.04634 -0.0983,-0.09826 z m 12.78784,-0.586165 c -0.54637,-0.507608 -0.59088,-0.595712 -0.3029,-0.599465 0.39615,-0.0052 1.11031,0.6938 1.01156,0.990042 -0.0435,0.130565 -0.29971,-0.01062 -0.70866,-0.390577 z m -14.82302,0.181078 c -0.28631,-0.07674 -0.56306,-0.208264 -0.61498,-0.292275 -0.12079,-0.19544 0.89561,-0.109685 1.28539,0.108452 0.42635,0.238596 -0.0148,0.359549 -0.67041,0.183823 z m 4.42398,-0.297019 c -0.0553,-0.08945 -0.0273,-0.162642 0.0621,-0.162642 0.0895,0 0.20789,0.07319 0.26317,0.162642 0.0553,0.08945 0.0273,0.162641 -0.0621,0.162641 -0.0895,0 -0.20787,-0.07319 -0.26316,-0.162641 z m -6.74963,-0.315475 -0.73188,-0.253771 0.63352,-0.05188 c 0.39722,-0.03253 0.72155,0.03613 0.86948,0.184059 0.35608,0.356076 0.0461,0.404958 -0.77112,0.1216 z m -8.538683,-0.01958 -0.650561,-0.09109 0.569241,-0.109514 c 0.759584,-0.14613 1.830674,-0.0733 1.89772,0.129048 0.05934,0.179141 -0.804847,0.213186 -1.8164,0.07156 z m 2.807463,0.05737 c 0.20231,-0.03891 0.49507,-0.03742 0.65057,0.0033 0.1555,0.04071 -0.01,0.07254 -0.36784,0.07073 -0.35781,-0.0018 -0.48504,-0.03511 -0.28273,-0.07401 z m 21.10204,-0.371032 c -0.057,-0.0922 0.008,-0.11946 0.15305,-0.06392 0.28176,0.108124 0.33331,0.2247 0.0994,0.2247 -0.0842,0 -0.19776,-0.07235 -0.25242,-0.160778 z m -17.51565,-0.275603 c 0.11741,-0.04698 0.25769,-0.04121 0.31173,0.01284 0.054,0.05404 -0.0421,0.09249 -0.21348,0.08543 -0.18946,-0.0078 -0.228,-0.04634 -0.0983,-0.09826 z m 2.22615,-0.05154 c -0.0553,-0.08945 0.0179,-0.162641 0.16264,-0.162641 0.14475,0 0.21793,0.07319 0.16264,0.162641 -0.0553,0.08946 -0.12847,0.162642 -0.16264,0.162642 -0.0341,0 -0.10736,-0.07319 -0.16264,-0.162642 z m 7.2355,-0.07857 c -0.2225,-0.120021 -0.82413,-0.389305 -1.33696,-0.598411 -0.51283,-0.209105 -0.93366,-0.471677 -0.93519,-0.583493 -9.3e-4,-0.111816 0.0704,-0.203303 0.15986,-0.203303 0.0895,0 0.16264,0.06722 0.16264,0.149383 0,0.08216 0.4702,0.305849 1.04487,0.497088 0.93717,0.311869 1.55445,0.711832 1.37522,0.891059 -0.0363,0.03624 -0.24794,-0.0323 -0.47044,-0.152323 z m 8.05703,-0.148777 c -0.28924,-0.230629 -0.39762,-0.412158 -0.28693,-0.48057 0.0978,-0.06047 0.37817,0.06233 0.62296,0.272891 0.58075,0.499536 0.27048,0.691293 -0.33603,0.207679 z m -20.18285,0.04678 c -0.14516,-0.234867 -0.0392,-0.284766 0.32447,-0.152741 0.27549,0.100026 0.28104,0.126198 0.0459,0.216443 -0.14715,0.05646 -0.31379,0.02779 -0.37035,-0.0637 z m 1.39353,0.0083 c 0,-0.09473 0.0732,-0.127007 0.16264,-0.07173 0.0895,0.05529 0.16264,0.132793 0.16264,0.17224 0,0.03945 -0.0732,0.07173 -0.16264,0.07173 -0.0895,0 -0.16264,-0.07751 -0.16264,-0.17224 z m 9.02661,0.0096 c -0.12721,-0.20584 0.0881,-0.20584 0.4066,0 0.21025,0.13587 0.20595,0.158004 -0.0311,0.160151 -0.15128,0.0014 -0.32026,-0.0707 -0.37555,-0.160151 z m -7.48151,-0.162586 c -0.0553,-0.08945 -0.023,-0.162641 0.0717,-0.162641 0.0947,0 0.17224,0.07319 0.17224,0.162641 0,0.08945 -0.0323,0.162643 -0.0717,0.162643 -0.0394,0 -0.11696,-0.07319 -0.17224,-0.162643 z M 88.155503,63.08461 c 0.147401,-0.154788 1.412318,-0.556965 1.412318,-0.449044 0,0.07182 -0.457915,0.258942 -1.138489,0.465229 -0.225095,0.06823 -0.347336,0.061 -0.273829,-0.01619 z m 18.408357,-0.06362 c -0.0553,-0.08945 -0.023,-0.162642 0.0717,-0.162642 0.0947,0 0.17224,0.07319 0.17224,0.162642 0,0.08946 -0.0323,0.162642 -0.0717,0.162642 -0.0394,0 -0.11695,-0.07319 -0.17224,-0.162642 z m 2.36008,-0.07919 c -0.17482,-0.210653 -0.13546,-0.219086 0.30538,-0.06541 0.57575,0.200712 0.64534,0.307236 0.20069,0.307236 -0.16795,0 -0.39569,-0.108822 -0.50607,-0.241825 z m 5.3654,-0.246099 c 0,-0.08945 0.0732,-0.162642 0.16264,-0.162642 0.0895,0 0.16265,0.07319 0.16265,0.162642 0,0.08945 -0.0732,0.162641 -0.16265,0.162641 -0.0895,0 -0.16264,-0.07319 -0.16264,-0.162641 z M 90.631845,62.521974 c 0.04721,-0.07642 0.340278,-0.186682 0.651216,-0.245013 0.310932,-0.05833 0.605438,-0.170949 0.654456,-0.250262 0.115325,-0.186594 0.720493,-0.188182 0.720493,-0.0019 0,0.07827 -0.201268,0.187076 -0.447262,0.241789 -0.245994,0.05471 -0.721206,0.165821 -1.056026,0.246906 -0.334814,0.08108 -0.570112,0.0849 -0.522877,0.0085 z m 14.475195,-0.302957 c -0.12028,-0.194617 0.18568,-0.387451 0.40231,-0.253562 0.18188,0.112415 0.0625,0.404965 -0.16529,0.404965 -0.0789,0 -0.18556,-0.06814 -0.23702,-0.151403 z m 5.36138,-0.0094 c -0.057,-0.0922 0.008,-0.11946 0.15304,-0.06392 0.28176,0.108122 0.33332,0.224699 0.0994,0.224699 -0.0842,0 -0.19775,-0.07235 -0.2524,-0.16078 z m -17.403805,-0.16448 c 0.05526,-0.08945 0.132796,-0.162642 0.172241,-0.162642 0.03947,0 0.07173,0.07319 0.07173,0.162642 0,0.08945 -0.07751,0.162641 -0.172242,0.162641 -0.09473,0 -0.12701,-0.07319 -0.07173,-0.162641 z m 26.055745,-0.249073 c -0.16071,-0.220822 -0.24545,-0.401494 -0.18829,-0.401494 0.20868,0 0.87309,0.610378 0.77317,0.710297 -0.16974,0.169738 -0.2783,0.112418 -0.58488,-0.308803 z m -28.658009,0.08643 c 0.05526,-0.08945 0.173704,-0.162642 0.263156,-0.162642 0.08946,0 0.11741,0.07319 0.06213,0.162642 -0.05526,0.08945 -0.173704,0.162642 -0.263156,0.162642 -0.08946,0 -0.11741,-0.07319 -0.06213,-0.162642 z m 3.732001,-0.01417 c -0.06012,-0.09725 -0.04352,-0.242579 0.03688,-0.32296 0.08643,-0.08643 0.146147,-0.0142 0.146147,0.176814 0,0.369559 -0.03012,0.393586 -0.183017,0.146146 z m 15.134418,0.01417 c -0.0553,-0.08945 0.0136,-0.162642 0.15305,-0.162642 0.13946,0 0.25356,0.07319 0.25356,0.162642 0,0.08945 -0.0688,0.162642 -0.15304,0.162642 -0.0842,0 -0.19828,-0.07319 -0.25357,-0.162642 z M 91.383615,61.719853 c 0.04776,-0.146291 0.302516,-0.254033 0.636353,-0.269118 0.38729,-0.0175 0.432976,-3.25e-4 0.150117,0.05625 -0.22363,0.04477 -0.509993,0.165875 -0.636352,0.26912 -0.181259,0.1481 -0.212947,0.136228 -0.150118,-0.05625 z m 5.421761,0 c 0.05526,-0.08945 0.13279,-0.162642 0.172241,-0.162642 0.03947,0 0.07172,0.07319 0.07172,0.162642 0,0.08945 -0.07751,0.162642 -0.17224,0.162642 -0.09473,0 -0.127005,-0.07319 -0.07172,-0.162642 z M 92.65801,61.39457 c 0,-0.08945 0.146381,-0.162642 0.325285,-0.162642 0.178905,0 0.325286,0.07319 0.325286,0.162642 0,0.08946 -0.146381,0.162641 -0.325286,0.162641 -0.178904,0 -0.325285,-0.07319 -0.325285,-0.162641 z m 10.68013,-0.108429 c -0.22195,-0.221958 -0.0972,-0.400464 0.24478,-0.350148 0.44695,0.06577 0.59718,0.458577 0.17538,0.458577 -0.17146,0 -0.36052,-0.04879 -0.42016,-0.108429 z m -9.1726,-0.166922 c 0.15825,-0.04124 0.377812,-0.03853 0.487925,0.006 0.110113,0.04456 -0.01937,0.07829 -0.287715,0.07498 -0.268356,-0.0033 -0.358454,-0.03977 -0.20021,-0.081 z m 7.69155,-0.03403 c -0.0562,-0.09093 -0.45951,-0.150011 -0.89625,-0.131283 -0.76877,0.03296 -1.151126,-0.09696 -0.93154,-0.316539 0.16042,-0.160419 2.55637,0.163103 2.59643,0.350592 0.0469,0.219158 -0.63962,0.305989 -0.76864,0.09723 z m 7.84779,-0.127011 c 0.11741,-0.04698 0.25769,-0.04121 0.31173,0.01284 0.0541,0.05404 -0.042,0.09249 -0.21346,0.08543 -0.18948,-0.0078 -0.22801,-0.04634 -0.0983,-0.09826 z m -11.191775,-0.21418 c 0,-0.08946 0.07321,-0.162642 0.16264,-0.162642 0.08948,0 0.16264,0.07319 0.16264,0.162642 0,0.08945 -0.0732,0.162641 -0.16264,0.162641 -0.08948,0 -0.16264,-0.07319 -0.16264,-0.162641 z m 16.827215,-0.172674 c -0.0587,-0.09497 -0.29274,-0.243396 -0.52008,-0.329834 -0.22735,-0.08644 -0.37786,-0.192667 -0.33446,-0.236065 0.12339,-0.123392 1.26734,0.398435 1.26734,0.578113 0,0.213448 -0.27843,0.20521 -0.4128,-0.01221 z m 1.65973,0.06425 c -0.0596,-0.05963 -0.10843,-0.184055 -0.10843,-0.276491 0,-0.101911 0.0757,-0.09231 0.19246,0.0244 0.10586,0.105854 0.15465,0.230275 0.10843,0.276491 -0.0462,0.04622 -0.13282,0.03524 -0.19246,-0.0244 z m -9.94826,-0.379496 c -0.0553,-0.08945 0.0136,-0.162643 0.15304,-0.162643 0.13946,0 0.25357,0.07319 0.25357,0.162643 0,0.08945 -0.0688,0.162641 -0.15304,0.162641 -0.0842,0 -0.19829,-0.07319 -0.25357,-0.162641 z m 8.15079,-0.563525 c -0.32235,-0.491954 -0.32672,-0.574967 -0.0303,-0.574967 0.29957,0 0.7435,0.443932 0.7435,0.743505 0,0.370078 -0.42627,0.269342 -0.71318,-0.168538 z m -14.04655,-0.359025 c -0.11181,-0.04422 -0.2033,-0.192628 -0.2033,-0.329785 0,-0.179243 0.10292,-0.221798 0.36595,-0.15131 0.20126,0.05394 0.50865,0.09907 0.68309,0.10029 0.19234,0.0013 0.25634,0.05903 0.16264,0.146584 -0.21653,0.202302 -0.76624,0.329988 -1.00838,0.234221 z m 11.87284,-0.383403 c -0.38017,-0.16892 -0.69123,-0.382023 -0.69123,-0.473563 0,-0.226528 1.49936,0.341182 1.58577,0.600432 0.0884,0.265077 -0.0597,0.244081 -0.89454,-0.126869 z M 90.381031,58.484651 c 0,-0.16927 0.809246,-0.401088 0.940824,-0.269509 0.04906,0.04908 -0.03276,0.08924 -0.181831,0.08924 -0.149091,0 -0.271068,0.07318 -0.271068,0.162641 0,0.08945 -0.109787,0.162642 -0.243965,0.162642 -0.134179,0 -0.24396,-0.06525 -0.24396,-0.145011 z m 16.106219,-0.17392 c -0.13158,-0.08322 -0.18963,-0.200923 -0.12899,-0.261565 0.14883,-0.148832 0.61221,0.04047 0.61221,0.250108 0,0.206571 -0.16838,0.210564 -0.48322,0.01145 z m 4.3053,-0.242338 c -0.53672,-0.197742 -1.08564,-0.402715 -1.21981,-0.455492 -0.13418,-0.05278 -0.35375,-0.133898 -0.48793,-0.180269 -0.13418,-0.04637 -4.9e-4,-0.07277 0.29699,-0.05867 0.29752,0.0141 0.5763,0.08284 0.6195,0.152744 0.0433,0.06991 0.19987,0.127105 0.34815,0.127105 0.40089,0 1.6629,0.510498 1.6629,0.672664 0,0.181854 -0.0605,0.169066 -1.2198,-0.258082 z m -19.19171,0.07334 c 0.05526,-0.08945 0.224283,-0.16152 0.375545,-0.160151 0.237012,0.0021 0.241303,0.02428 0.03104,0.160151 -0.318511,0.20584 -0.533819,0.20584 -0.406604,0 z m 6.627643,-0.116822 c -0.279348,-0.100205 -0.256671,-0.371103 0.03107,-0.371103 0.269395,0 0.482599,0.26819 0.296872,0.37342 -0.06855,0.03883 -0.216124,0.03779 -0.32794,-0.0023 z m 0.622748,-0.140692 c 0.0074,-0.18947 0.04632,-0.228008 0.09826,-0.09826 0.04697,0.117407 0.04121,0.257684 -0.01284,0.31173 -0.05404,0.05404 -0.09246,-0.04202 -0.08539,-0.213466 z m 0.53894,0.06661 c -0.04651,-0.07518 0.01172,-0.169274 0.129135,-0.209118 0.483974,-0.164139 0.834224,-0.158431 0.895024,0.01458 0.0752,0.213989 -0.897907,0.398822 -1.024159,0.194533 z m 2.712209,0.03516 c -0.13459,-0.08318 -0.0469,-0.156018 0.25851,-0.214673 0.56642,-0.108792 0.61392,-0.07706 0.23697,0.158351 -0.16047,0.10022 -0.38345,0.125566 -0.49548,0.05632 z m 1.61526,-0.0069 c -0.129,-0.07973 -0.19796,-0.181548 -0.15322,-0.226275 0.0447,-0.04472 0.18687,-0.01608 0.31586,0.06363 0.129,0.07973 0.19795,0.181549 0.15323,0.226275 -0.0447,0.04472 -0.18687,0.01608 -0.31587,-0.06363 z m 0.81321,0 c 0,-0.08945 0.0775,-0.162641 0.17224,-0.162641 0.0947,0 0.12701,0.07319 0.0717,0.162641 -0.0553,0.08946 -0.13279,0.162642 -0.17224,0.162642 -0.0394,0 -0.0717,-0.07319 -0.0717,-0.162642 z m -3.57812,-0.162641 c 0,-0.190895 0.12501,-0.190895 0.56925,0 0.28824,0.123862 0.27435,0.14108 -0.12198,0.151209 -0.246,0.0063 -0.44727,-0.06175 -0.44727,-0.151209 z m 14.65949,-0.102775 c -0.30113,-0.131385 -0.50919,-0.277188 -0.46238,-0.324009 0.0899,-0.08989 1.09121,0.380184 1.09121,0.512282 0,0.09237 0.0458,0.106076 -0.62883,-0.188273 z m -9.70824,-0.127899 c -0.1735,-0.126866 -0.26057,-0.285553 -0.19348,-0.352636 0.13899,-0.138998 0.93469,0.242501 0.93469,0.448142 0,0.210031 -0.39253,0.159452 -0.74121,-0.09551 z m -3.72064,-0.403277 c -0.19035,-0.07454 -0.24577,-0.165623 -0.14041,-0.230741 0.0957,-0.05917 0.26452,0.0015 0.37506,0.134586 0.22277,0.268411 0.21419,0.271924 -0.23465,0.09615 z m 1.17852,0.03492 c 0.11741,-0.04698 0.25769,-0.04121 0.31173,0.01284 0.054,0.05404 -0.042,0.09249 -0.21347,0.08543 -0.18947,-0.0078 -0.22801,-0.04634 -0.0983,-0.09826 z M 80.558867,56.974671 c 0.05981,-0.09674 0.738978,-0.467554 1.5093,-0.824028 1.683595,-0.7791 2.272,-1.010581 2.051159,-0.806942 -0.28389,0.261774 -3.674021,1.814724 -3.560459,1.63097 z m 19.37735,0.0763 c -0.620692,-0.09621 -0.587327,-0.535647 0.04065,-0.535647 0.635123,0 0.630653,-0.304871 -0.0065,-0.43227 -0.653127,-0.130628 -0.530438,-0.42065 0.246233,-0.582017 0.46317,-0.09623 0.72239,-0.06395 1.0124,0.126078 0.21442,0.140485 0.51439,0.243 0.66661,0.227807 0.62557,-0.06243 1.02347,0.01692 0.92049,0.183565 -0.0591,0.09555 -0.21791,0.131316 -0.35299,0.07947 -0.17687,-0.06787 -0.21701,-0.0197 -0.14343,0.172075 0.0925,0.241038 0.0619,0.239904 -0.32249,-0.01193 -0.6218,-0.407423 -1.24538,-0.215698 -1.17747,0.36202 0.0552,0.469869 -0.0844,0.534758 -0.883657,0.410856 z m 1.179153,-0.04772 c 0,-0.08945 0.10547,-0.162641 0.23437,-0.162641 0.12889,0 0.27959,0.07319 0.33488,0.162641 0.0553,0.08945 -0.0501,0.162642 -0.23437,0.162642 -0.18418,0 -0.33488,-0.07319 -0.33488,-0.162642 z m 5.28585,-0.07817 c -0.44726,-0.107747 -1.04988,-0.252931 -1.33915,-0.322631 -0.78254,-0.188557 -0.47605,-0.412407 0.56466,-0.412407 1.07206,0 1.87051,0.252348 2.13415,0.674496 0.16314,0.261237 0.1393,0.298365 -0.17912,0.2789 -0.20204,-0.01234 -0.73327,-0.110611 -1.18054,-0.218358 z m -8.404089,-0.132013 c 0.264345,-0.318504 1.329184,-0.349657 1.329184,-0.03889 0,0.187729 -0.185132,0.249058 -0.7518,0.249058 -0.596117,0 -0.715681,-0.04353 -0.577384,-0.210174 z m 4.744659,-0.277751 c 0,-0.08945 0.0775,-0.162641 0.17224,-0.162641 0.0947,0 0.12701,0.07319 0.0717,0.162641 -0.0553,0.08945 -0.1328,0.162642 -0.17224,0.162642 -0.0394,0 -0.0717,-0.07319 -0.0717,-0.162642 z m 12.26987,-0.07614 c -0.40431,-0.305805 -0.116,-0.30939 0.41617,-0.0052 0.26064,0.148985 0.31559,0.234505 0.15308,0.238198 -0.13945,0.0032 -0.39562,-0.101691 -0.56925,-0.233026 z m -11.07417,-0.04748 c 0.0591,-0.09564 0.0154,-0.210949 -0.0969,-0.256253 -0.12327,-0.04969 -0.0914,-0.08746 0.0803,-0.09521 0.32186,-0.01453 0.38065,0.233902 0.0968,0.409294 -0.11099,0.06859 -0.14382,0.04494 -0.0803,-0.05783 z m -0.87042,-0.373907 c 0,-0.09473 0.0732,-0.127007 0.16264,-0.07173 0.0895,0.05529 0.16265,0.132794 0.16265,0.17224 0,0.03945 -0.0732,0.07173 -0.16265,0.07173 -0.0895,0 -0.16264,-0.07751 -0.16264,-0.17224 z m 7.97415,0.01596 c -0.13159,-0.08322 -0.18963,-0.200923 -0.12899,-0.261565 0.14883,-0.148832 0.6122,0.04047 0.6122,0.250108 0,0.206571 -0.16837,0.210564 -0.48321,0.01145 z M 88.917256,55.556871 c 0,-0.07988 0.120133,-0.191341 0.266963,-0.247685 0.223224,-0.08566 0.233287,-0.06186 0.06141,0.14524 -0.234222,0.282223 -0.328371,0.311596 -0.328373,0.102445 z m 20.655484,-0.02699 c 0,-0.09473 0.0732,-0.127006 0.16264,-0.07172 0.0895,0.05529 0.16264,0.132793 0.16264,0.172241 0,0.03945 -0.0732,0.07173 -0.16264,0.07173 -0.0895,0 -0.16264,-0.07751 -0.16264,-0.172241 z M 89.852443,55.106472 c 0.111816,-0.04512 0.29479,-0.04512 0.406605,0 0.111816,0.04512 0.02034,0.08203 -0.203302,0.08203 -0.223631,0 -0.315118,-0.03691 -0.203303,-0.08203 z M 106.2137,54.848244 c -0.0416,-0.06709 0.10733,-0.121982 0.33096,-0.121982 0.22364,0 0.44704,0.06542 0.49645,0.145369 0.0494,0.07996 -0.0995,0.134845 -0.33097,0.121981 -0.23145,-0.01286 -0.45484,-0.07828 -0.49644,-0.145368 z m 4.98545,0.04066 c -0.14659,-0.09473 -0.16664,-0.158655 -0.0503,-0.160151 0.10653,-0.0013 0.23894,0.0707 0.29422,0.160151 0.12481,0.201925 0.0685,0.201925 -0.24396,0 z M 85.501781,54.74099 c 0.134179,-0.07591 0.426934,-0.186523 0.650565,-0.245801 l 0.406606,-0.10778 -0.406606,0.244984 c -0.223631,0.134741 -0.516386,0.245352 -0.650565,0.245802 -0.216856,6.76e-4 -0.216856,-0.01453 0,-0.137205 z m 13.661894,-0.17737 c -0.208488,-0.134737 -0.202582,-0.158022 0.04065,-0.160152 0.156538,-0.0013 0.284622,0.0707 0.284622,0.160152 0,0.19836 -0.01832,0.19836 -0.325289,0 z m -7.073268,-0.490577 c 0.05618,-0.09091 0.170286,-0.123188 0.253561,-0.07173 0.225592,0.139422 0.183528,0.237016 -0.102159,0.237016 -0.139458,0 -0.207593,-0.07439 -0.151402,-0.165294 z m 1.187678,-0.10845 c 0.117403,-0.04698 0.257686,-0.04121 0.311731,0.01284 0.05403,0.05404 -0.04204,0.09249 -0.21347,0.08543 -0.189471,-0.0078 -0.228007,-0.04634 -0.09826,-0.09826 z m 10.867375,-0.0565 c 0.11099,-0.110979 0.30055,-0.114462 0.56112,-0.01031 0.36975,0.147794 0.35964,0.157912 -0.1676,0.167598 -0.38514,0.0071 -0.50855,-0.04225 -0.39352,-0.157288 z M 88.398836,53.801952 c 0.117403,-0.04698 0.257686,-0.04121 0.31173,0.01284 0.05403,0.05404 -0.04204,0.09249 -0.213469,0.08542 -0.189471,-0.0078 -0.228007,-0.04634 -0.09826,-0.09826 z m 6.780119,-0.05154 c 0.05526,-0.08945 0.205982,-0.162642 0.334887,-0.162642 0.128898,0 0.234363,0.07319 0.234363,0.162642 0,0.08945 -0.150701,0.162641 -0.334886,0.162641 -0.184186,0 -0.289645,-0.07319 -0.234364,-0.162641 z m 3.986775,-0.0047 c 0.297366,-0.188009 0.485865,-0.19961 0.485865,-0.0299 0,0.07041 -0.163747,0.140365 -0.363892,0.155442 -0.285989,0.02154 -0.312099,-0.0053 -0.121973,-0.12554 z m -8.052815,-0.157924 c 0.178905,-0.07688 0.544848,-0.137628 0.813211,-0.134998 0.47579,0.0047 0.477813,0.008 0.08132,0.134998 -0.223631,0.07162 -0.589579,0.132369 -0.81321,0.134997 -0.369619,0.0044 -0.377014,-0.0079 -0.08132,-0.134997 z m 9.153895,-0.03823 c 0.2745,-0.132246 0.42073,-0.129376 0.56111,0.01101 0.14473,0.144723 0.0565,0.187246 -0.37125,0.178855 -0.526955,-0.01034 -0.538507,-0.0219 -0.18986,-0.189862 z m -7.6088,-0.250928 c 0,-0.08899 0.347648,-0.208668 0.772548,-0.265946 0.424904,-0.05728 1.056271,-0.146775 1.403041,-0.198882 0.398251,-0.05984 0.593741,-0.03529 0.530733,0.06667 -0.05489,0.08877 -0.521555,0.211979 -1.037093,0.27379 -0.515537,0.06181 -1.102013,0.151488 -1.303281,0.199282 -0.201273,0.04779 -0.365948,0.01408 -0.365948,-0.07491 z m 9.83982,-0.31827 c -0.35782,-0.03566 -0.71815,-0.131201 -0.80076,-0.212299 -0.19429,-0.190759 1.55861,-0.0022 1.76848,0.190152 0.0937,0.08593 0.0617,0.130919 -0.0813,0.114338 -0.12971,-0.01504 -0.52859,-0.05653 -0.88639,-0.09219 z m -5.855101,-0.205753 c 0.05526,-0.08945 0.246899,-0.162642 0.425802,-0.162642 0.178905,0 0.280047,0.07319 0.224768,0.162642 -0.05526,0.08945 -0.246898,0.162641 -0.425801,0.162641 -0.178904,0 -0.280049,-0.07318 -0.224769,-0.162641 z m 2.073674,-0.112114 c 0.156547,-0.04091 0.412707,-0.04091 0.569254,0 0.156538,0.04091 0.02846,0.07439 -0.284622,0.07439 -0.313095,0 -0.44117,-0.03347 -0.284632,-0.07439 z"
       id="path348"
       sodipodi:nodetypes="sssssssssscscscsssssssssssssssssssscssscsscscssssssssscssscssssssssscscssssssssssssssscscsscsssssscccssscsssssssssssssssssssssssssssssssssssssssssscsssssssscsccssssssssscssscsssssssssssssssscscscsssssssssssscssssssscccsssssssscsssssssssssscsssscsssssssssssssssssssssscsssssscsssscssssssssscsssscscscsssssscssscccscssccsssssssssssssccsssssssssssssssssscscssccsssccsssscsssscsssssscscccscssscssssssccscssssssssssssssscssccssssssssssssscsssssscssssssssssssssssccsssscssssssscscssssscccssccccccccssccssssscsscssssssssssscsscsssssscsssssssssssssssscsssscscsccsssssssssssssssssssssssssssssscssccsssssssssssscsssssccsccssssssssssssssssssssssssscsssssssssscsscssssssssssssscsscccscscssssssscsscsccsscsssssssscscccssssscscccsssssssssssssccsscscsccssccssssssscsssssssssssscssssssssssscssccssssscssssssssssssscsssssssssssssssssssscscscscsssscscscccccssssssssscscscsscssscssssscssccssssssscsscssscssssscssscssssssssscsssssccsssssssscssscsssscscscscssscssscsscssscssscssssssssssssssssscsssssssssssssssssssssscssscsssssssscssssssscsssssssssssssssssscsccccssccsssssscssssssssscscssscsssssssssssssssscsssssscsscsssssscssscsssscssssssssssssssscsssscssssssssssssssssssssssssssssssscssscccsccsscscsccsccssssscssssssssscssscssscsssssssscssssssssscsssssssscscscssss" /><path
       style="fill:#c87137;stroke-width:0.223743"
       id="path461"
       sodipodi:type="arc"
       sodipodi:cx="99.33326"
       sodipodi:cy="95.200935"
       sodipodi:rx="6.2746091"
       sodipodi:ry="6.2746091"
       sodipodi:start="6.0957345"
       sodipodi:end="6.0953032"
       sodipodi:open="true"
       sodipodi:arc-type="arc"
       d="m 105.49795,94.031631 a 6.2746091,6.2746091 0 0 1 -4.99472,7.333869 6.2746091,6.2746091 0 0 1 -7.334412,-4.993931 6.2746091,6.2746091 0 0 1 4.993143,-7.334949 6.2746091,6.2746091 0 0 1 7.335489,4.992352" /><text
       xml:space="preserve"
       style="font-style:normal;font-variant:normal;font-weight:bold;font-stretch:normal;font-size:32.8143px;font-family:MathJax_AMS;-inkscape-font-specification:'MathJax_AMS Bold';fill:#c87137;stroke-width:0.465083"
       x="147.31157"
       y="102.64651"
       id="text668"><tspan
         sodipodi:role="line"
         id="tspan666"
         style="font-style:normal;font-variant:normal;font-weight:bold;font-stretch:normal;font-size:32.8143px;font-family:'URW Gothic';-inkscape-font-specification:'URW Gothic Bold';stroke-width:0.465084"
         x="147.31157"
         y="102.64651">Agen<tspan
   style="font-style:italic"
   id="tspan2275">Dao</tspan></tspan></text><text
       xml:space="preserve"
       style="font-style:normal;font-variant:normal;font-weight:bold;font-stretch:normal;font-size:18.0479px;font-family:'URW Gothic';-inkscape-font-specification:'URW Gothic Bold';fill:#b3b3b3;stroke-width:0.465083"
       x="145.77785"
       y="130.28137"
       id="text826"><tspan
         sodipodi:role="line"
         id="tspan824"
         style="font-size:18.0479px;fill:#b3b3b3;stroke-width:0.465084"
         x="145.77785"
         y="130.28137">The Dao of Agent</tspan></text><path
       style="fill:#999999;stroke:#b2b2b2;stroke-width:1.09835;stroke-dasharray:none;stroke-opacity:1"
       d="M 141.70129,113.19741 H 300.4269"
       id="path891" /></g></svg>
